<svg width="60" height="60" viewBox="0 0 60 60" fill="none" xmlns="http://www.w3.org/2000/svg">
<g clip-path="url(#clip0_241_146)">
<path fill-rule="evenodd" clip-rule="evenodd" d="M30 60C46.5686 60 60 46.5686 60 30C60 13.4314 46.5686 0 30 0C13.4314 0 0 13.4314 0 30C0 46.5686 13.4314 60 30 60ZM37.9549 37.9549C33.5615 42.3484 26.4384 42.3484 22.045 37.9549C17.6516 33.5616 17.6516 26.4384 22.045 22.0451C26.4384 17.6517 33.5615 17.6517 37.9549 22.0451L43.2581 16.7418C35.9359 9.4194 24.064 9.4194 16.7417 16.7418C9.4194 24.0641 9.4194 35.9359 16.7417 43.2581C24.064 50.5807 35.9359 50.5807 43.2581 43.2581L37.9549 37.9549Z" fill="black"/>
</g>
<defs>
<clipPath id="clip0_241_146">
<rect width="60" height="60" fill="white"/>
</clipPath>
</defs>
</svg>
