<svg width="47" height="102" viewBox="0 0 47 102" fill="none" xmlns="http://www.w3.org/2000/svg">
<path d="M23.2055 100.662C0.254391 100.662 0.999721 77.1819 0.999721 77.1819V41.1435H45.4105V77.1819C45.4105 77.1819 46.1879 100.662 23.2055 100.662Z" fill="#005BBF"/>
<path d="M23.2055 100.662C0.254391 100.662 0.999721 77.1819 0.999721 77.1819V41.1435H45.4105V77.1819C45.4105 77.1819 46.1879 100.662 23.2055 100.662Z" stroke="black" stroke-width="1.0064"/>
<path d="M23.0103 18.4627C23.0103 18.4627 18.2752 15.9577 13.7959 19.6459C13.7959 19.6459 5.73572 18.381 5.14257 26.7762C5.11874 27.1162 5.07015 27.7422 5.21408 27.9246C5.35802 28.107 5.50195 28.4469 5.50195 28.6802C5.50195 28.9154 5.64588 29.046 5.69447 29.1497C5.74213 29.2544 5.86223 29.4109 5.88607 29.8544C5.9099 30.298 5.83839 30.5064 6.22252 30.95C6.60573 31.3935 6.62956 32.6725 6.62956 33.0373C6.62956 33.4022 6.86976 34.4199 7.03752 34.6293C7.20529 34.8376 7.49315 35.3589 7.49315 35.8025C7.49315 36.2461 7.66092 37.4722 7.5885 37.7842C7.51699 38.0972 8.02029 38.489 8.47684 38.6455C8.93247 38.802 14.5953 40.8106 22.8489 40.6541C31.1035 40.4976 34.0756 40.0201 37.486 38.6714C38.0131 38.4631 38.1094 37.9935 38.0617 37.7324C38.0131 37.4722 38.0617 36.6379 38.2056 36.4285C38.3496 36.2202 39.3094 34.5505 39.1169 34.2375C38.9253 33.9245 38.9253 33.2457 39.1169 32.9855C39.3094 32.7243 39.9099 31.4693 40.0282 30.95C40.1473 30.4296 40.1629 29.8166 40.3829 29.6351C40.6039 29.4537 40.6781 28.8656 40.7203 28.743C40.7634 28.6194 40.9238 28.2366 41.1475 28.0621C41.1475 28.0621 41.5637 25.9409 41.307 24.8982C41.0522 23.8545 39.6119 19.3668 33.7575 20.3068C33.7575 20.3068 29.4065 16.7232 23.0085 18.4627" fill="#D81126"/>
<path d="M23.0103 18.4627C23.0103 18.4627 18.2752 15.9577 13.7959 19.6459C13.7959 19.6459 5.73572 18.381 5.14257 26.7762C5.11874 27.1162 5.07015 27.7422 5.21408 27.9246C5.35802 28.107 5.50195 28.4469 5.50195 28.6802C5.50195 28.9154 5.64588 29.046 5.69447 29.1497C5.74213 29.2544 5.86223 29.4109 5.88607 29.8544C5.9099 30.298 5.83839 30.5064 6.22252 30.95C6.60573 31.3935 6.62956 32.6725 6.62956 33.0373C6.62956 33.4022 6.86976 34.4199 7.03752 34.6293C7.20529 34.8376 7.49315 35.3589 7.49315 35.8025C7.49315 36.2461 7.66092 37.4722 7.5885 37.7842C7.51699 38.0972 8.02029 38.489 8.47684 38.6455C8.93247 38.802 14.5953 40.8106 22.8489 40.6541C31.1035 40.4976 34.0756 40.0201 37.486 38.6714C38.0131 38.4631 38.1094 37.9936 38.0617 37.7324C38.0131 37.4722 38.0617 36.6379 38.2056 36.4285C38.3496 36.2202 39.3094 34.5505 39.1169 34.2375C38.9253 33.9245 38.9253 33.2457 39.1169 32.9855C39.3094 32.7243 39.9099 31.4693 40.0282 30.95C40.1473 30.4296 40.1629 29.8166 40.3829 29.6351C40.6039 29.4537 40.6781 28.8656 40.7203 28.743C40.7634 28.6194 40.9238 28.2366 41.1475 28.0621C41.1475 28.0621 41.5637 25.9409 41.307 24.8982C41.0522 23.8545 39.6119 19.3668 33.7575 20.3068C33.7575 20.3068 29.4065 16.7232 23.0085 18.4627H23.0103Z" stroke="black" stroke-width="1.5084"/>
<path d="M38.852 34.091C20.8724 27.8987 7.01556 33.7839 7.01556 33.7839C7.01556 33.7839 7.1439 34.4668 7.30342 34.6751C7.46385 34.8834 7.68755 35.3709 7.68755 35.7367C7.68755 36.1016 7.71963 36.6239 7.71963 36.902C7.71963 37.1791 7.52345 38.4272 8.5493 38.4122C8.5493 38.4122 21.0457 33.0822 37.3182 38.6863C37.3182 38.6863 37.7638 38.2517 37.7803 37.6257C37.7959 36.9997 37.8912 36.3388 38.1158 35.9909C38.3395 35.643 38.8511 34.5565 38.8511 34.091" fill="#BCAC0B"/>
<path d="M22.1825 66.6763H14.3762C14.3762 66.6763 13.608 74.2592 19.6229 76.5559V77.2516H20.9027V78.1558C20.9027 78.1558 18.6951 80.3119 20.6139 82.7821V83.5476H20.9347V84.7647H21.2859V86.7464C21.2859 86.7464 20.998 93.8259 14.6155 97.2171V97.6348H31.6572V97.2171C25.2756 93.8259 24.9868 86.7464 24.9868 86.7464V84.7647H25.338V83.5476H25.6579V82.7821C27.5776 80.3119 25.37 78.1558 25.37 78.1558V77.2516H26.6498V76.5559C32.6647 74.2592 31.8965 66.6763 31.8965 66.6763H22.1815" fill="#C8B100" fill-opacity="0.941176"/>
<path d="M22.1825 66.6763H14.3762C14.3762 66.6763 13.608 74.2592 19.6229 76.5559V77.2516H20.9027V78.1558C20.9027 78.1558 18.6951 80.3119 20.6139 82.7821V83.5476H20.9347V84.7647H21.2859V86.7464C21.2859 86.7464 20.998 93.8259 14.6155 97.2171V97.6348H31.6572V97.2171C25.2756 93.8259 24.9868 86.7464 24.9868 86.7464V84.7647H25.338V83.5476H25.6579V82.7821C27.5776 80.3119 25.37 78.1558 25.37 78.1558V77.2516H26.6498V76.5559C32.6647 74.2592 31.8965 66.6763 31.8965 66.6763H22.1815H22.1825Z" stroke="black" stroke-width="1.0064"/>
<path d="M19.3662 76.4512H26.9011M19.6229 77.0772H26.6453M20.9027 78.1209H25.3178M20.6139 82.8688H25.6534M20.9504 83.4519H25.3499M20.9504 84.6352H25.3334M18.2633 94.2446H28.0049M15.5121 96.6968H30.7726M14.9364 97.0616H31.3639" stroke="black" stroke-width="0.2522"/>
<path d="M23.2019 66.2287C25.9503 66.2287 28.179 63.8054 28.179 60.8169C28.179 57.8284 25.9503 55.4052 23.2019 55.4052C20.4534 55.4052 18.2248 57.8284 18.2248 60.8169C18.2248 63.8054 20.4534 66.2287 23.2019 66.2287Z" fill="#CCCCCC"/>
<path d="M23.2019 66.2287C25.9503 66.2287 28.179 63.8054 28.179 60.8169C28.179 57.8284 25.9503 55.4052 23.2019 55.4052C20.4534 55.4052 18.2248 57.8284 18.2248 60.8169C18.2248 63.8054 20.4534 66.2287 23.2019 66.2287Z" stroke="black" stroke-width="1.0064"/>
<path d="M11.6204 50.3273H8.51718V46.952H5.76596V50.3273H2.66272V53.3178H5.76596V56.6921H8.51718V53.3178H11.6204V50.3273Z" fill="#CCCCCC"/>
<path d="M11.6204 50.3273H8.51718V46.952H5.76596V50.3273H2.66272V53.3178H5.76596V56.6921H8.51718V53.3178H11.6204V50.3273Z" stroke="black" stroke-width="1.0064"/>
<path d="M43.8731 50.3273H40.7699V46.952H38.0177V50.3273H34.9154V53.3178H38.0177V56.6921H40.7699V53.3178H43.8731V50.3273Z" fill="#CCCCCC"/>
<path d="M43.8731 50.3273H40.7699V46.952H38.0177V50.3273H34.9154V53.3178H38.0177V56.6921H40.7699V53.3178H43.8731V50.3273Z" stroke="black" stroke-width="1.0064"/>
<path d="M27.529 46.0868H24.4258V42.7125H21.6746V46.0868H18.5714V49.0783H21.6746V52.4525H24.4258V49.0783H27.529V46.0868Z" fill="#CCCCCC"/>
<path d="M27.529 46.0868H24.4258V42.7125H21.6746V46.0868H18.5714V49.0783H21.6746V52.4525H24.4258V49.0783H27.529V46.0868Z" stroke="black" stroke-width="1.0064"/>
<path d="M11.6204 64.9368H8.51718V61.5626H5.76596V64.9368H2.66272V67.9283H5.76596V71.3026H8.51718V67.9283H11.6204V64.9368Z" fill="#CCCCCC"/>
<path d="M11.6204 64.9368H8.51718V61.5626H5.76596V64.9368H2.66272V67.9283H5.76596V71.3026H8.51718V67.9283H11.6204V64.9368Z" stroke="black" stroke-width="1.0064"/>
<path d="M43.8731 64.9368H40.7699V61.5626H38.0177V64.9368H34.9154V67.9283H38.0177V71.3026H40.7699V67.9283H43.8731V64.9368Z" fill="#CCCCCC"/>
<path d="M43.8731 64.9368H40.7699V61.5626H38.0177V64.9368H34.9154V67.9283H38.0177V71.3026H40.7699V67.9283H43.8731V64.9368Z" stroke="black" stroke-width="1.0064"/>
<path d="M11.6204 79.6909H8.51718V76.3156H5.76596V79.6909H2.66272V82.6824H5.76596V86.0556H8.51718V82.6824H11.6204V79.6909Z" fill="#CCCCCC"/>
<path d="M11.6204 79.6909H8.51718V76.3156H5.76596V79.6909H2.66272V82.6824H5.76596V86.0556H8.51718V82.6824H11.6204V79.6909Z" stroke="black" stroke-width="1.0064"/>
<path d="M43.8731 79.6909H40.7699V76.3156H38.0177V79.6909H34.9154V82.6824H38.0177V86.0556H40.7699V82.6824H43.8731V79.6909Z" fill="#CCCCCC"/>
<path d="M43.8731 79.6909H40.7699V76.3156H38.0177V79.6909H34.9154V82.6824H38.0177V86.0556H40.7699V82.6824H43.8731V79.6909Z" stroke="black" stroke-width="1.0064"/>
<path d="M23.1616 11.2387C24.8108 11.2387 26.1484 9.7853 26.1484 7.992C26.1484 6.19871 24.8108 4.74533 23.1616 4.74533C21.5123 4.74533 20.1757 6.19871 20.1757 7.992C20.1757 9.7853 21.5123 11.2387 23.1616 11.2387Z" fill="#005BBF"/>
<path d="M23.1616 11.2387C24.8108 11.2387 26.1484 9.7853 26.1484 7.992C26.1484 6.19871 24.8108 4.74533 23.1616 4.74533C21.5123 4.74533 20.1757 6.19871 20.1757 7.992C20.1757 9.7853 21.5123 11.2387 23.1616 11.2387Z" stroke="black" stroke-width="1.0064"/>
<path d="M25.9458 7.41783H23.498V3.11352H24.4331V2.25226H23.498V1.2345H22.706V2.25226H21.7699V3.11352H22.706V7.41783H20.3783V7.992H22.706V8.01792H23.498V7.992H25.9458V7.41783Z" fill="#FFCC00"/>
<path d="M25.9458 7.41783H23.498V3.11352H24.4331V2.25226H23.498V1.2345H22.706V2.25226H21.7699V3.11352H22.706V7.41783H20.3783V7.992H22.706V8.01792H23.498V7.992H25.9458V7.41783Z" fill="#BCAC0B" stroke="black" stroke-width="0.501998"/>
<path d="M11.2051 15.1233C11.2051 15.1233 13.4127 14.8452 14.6916 15.4014C14.6916 15.4014 13.2257 17.2146 13.5401 19.61C13.7006 20.8282 13.9243 21.4542 14.2442 22.0453C14.5642 22.6374 14.9153 23.8545 14.7237 24.8284H15.1399C15.1399 24.8284 15.5561 22.8457 14.852 21.7323C14.148 20.6198 13.7959 19.0887 14.5 17.4888C15.2031 15.8889 16.2272 15.2629 16.2272 15.2629C17.4107 15.7842 19.9071 15.2968 20.6102 14.7405C21.3134 14.1833 21.6654 13.4187 20.3544 13.3489C19.0435 13.2792 16.8038 13.3141 15.2682 14.5671C15.2682 14.5671 14.4679 13.5573 10.469 14.0447C6.47007 14.5322 3.57951 16.3893 2.69484 20.3068C2.24746 22.2895 3.94255 26.4632 5.51022 27.472C5.51022 27.472 5.46254 26.7942 5.62206 26.3067C5.62206 26.3067 2.95061 23.0541 3.75094 20.0277C4.55036 17.0013 7.74986 15.0186 11.2051 15.1233Z" fill="#FFCC00"/>
<path d="M11.2051 15.1233C11.2051 15.1233 13.4127 14.8452 14.6916 15.4014C14.6916 15.4014 13.2257 17.2146 13.5401 19.61C13.7006 20.8282 13.9243 21.4542 14.2442 22.0453C14.5642 22.6374 14.9153 23.8545 14.7237 24.8284H15.1399C15.1399 24.8284 15.5561 22.8457 14.852 21.7323C14.148 20.6198 13.7959 19.0887 14.5 17.4888C15.2031 15.8889 16.2272 15.2629 16.2272 15.2629C17.4107 15.7842 19.9071 15.2968 20.6102 14.7405C21.3134 14.1833 21.6654 13.4187 20.3544 13.3489C19.0435 13.2792 16.8038 13.3141 15.2682 14.5671C15.2682 14.5671 14.4679 13.5573 10.469 14.0447C6.47007 14.5322 3.57951 16.3893 2.69484 20.3068C2.24746 22.2895 3.94255 26.4632 5.51022 27.472C5.51022 27.472 5.46254 26.7942 5.62206 26.3067C5.62206 26.3067 2.95061 23.0541 3.75094 20.0277C4.55036 17.0013 7.74986 15.0186 11.2051 15.1233Z" fill="#BCAC0B" stroke="black" stroke-width="0.653319"/>
<path d="M18.7208 14.5242C19.412 14.4634 19.9657 14.3328 19.9584 14.2302C19.9511 14.1295 19.3845 14.0956 18.6933 14.1564C18.002 14.2172 17.4483 14.3488 17.4556 14.4505C17.463 14.5521 18.0295 14.585 18.7208 14.5242Z" fill="white"/>
<path d="M16.2033 15.2449C16.9954 14.4365 18.6511 13.8882 19.5871 14.1235C20.5222 14.3578 19.4184 14.4883 19.1067 14.5143C18.795 14.5402 18.1707 14.6708 17.2594 14.5143" stroke="black" stroke-width="0.653319"/>
<path d="M35.0703 15.3835C35.0703 15.3835 32.8636 15.1064 31.5839 15.6626C31.5839 15.6626 33.0507 17.4748 32.7353 19.8712C32.5758 21.0893 32.3521 21.7153 32.0322 22.3065C31.7113 22.8966 31.3602 24.1157 31.5518 25.0896H31.1355C31.1355 25.0896 30.7203 23.1069 31.4234 21.9934C32.1275 20.88 32.4795 19.3499 31.7755 17.75C31.0723 16.149 30.0483 15.523 30.0483 15.523C28.8647 16.0454 26.3693 15.5579 25.6652 15.0017C24.963 14.4445 24.61 13.6799 25.921 13.6101C27.2329 13.5403 29.4725 13.5752 31.0081 14.8272C31.0081 14.8272 31.8075 13.8185 35.8065 14.3059C39.8063 14.7924 42.6959 16.6504 43.5806 20.567C44.0289 22.5497 42.3329 26.7244 40.7652 27.7332C40.7652 27.7332 40.8138 27.0553 40.6534 26.5679C40.6534 26.5679 43.3248 23.3152 42.5254 20.2889C41.7251 17.2625 38.5265 15.2798 35.0703 15.3835Z" fill="#FFCC00"/>
<path d="M35.0703 15.3835C35.0703 15.3835 32.8636 15.1064 31.5839 15.6626C31.5839 15.6626 33.0507 17.4748 32.7353 19.8712C32.5758 21.0893 32.3521 21.7153 32.0322 22.3065C31.7113 22.8966 31.3602 24.1157 31.5518 25.0896H31.1355C31.1355 25.0896 30.7203 23.1069 31.4234 21.9934C32.1275 20.88 32.4795 19.3499 31.7755 17.75C31.0723 16.149 30.0483 15.523 30.0483 15.523C28.8647 16.0454 26.3693 15.5579 25.6652 15.0017C24.963 14.4445 24.61 13.6799 25.921 13.6101C27.2329 13.5403 29.4725 13.5752 31.0081 14.8272C31.0081 14.8272 31.8075 13.8185 35.8065 14.3059C39.8063 14.7924 42.6959 16.6504 43.5806 20.567C44.0289 22.5497 42.3329 26.7244 40.7652 27.7332C40.7652 27.7332 40.8138 27.0553 40.6534 26.5679C40.6534 26.5679 43.3248 23.3152 42.5254 20.2889C41.7251 17.2625 38.5265 15.2798 35.0703 15.3835Z" fill="#BCAC0B" stroke="black" stroke-width="0.653319"/>
<path d="M27.5547 14.7854C26.8644 14.7246 26.3098 14.593 26.3171 14.4913C26.3253 14.3897 26.891 14.3568 27.5822 14.4176C28.2735 14.4784 28.8281 14.61 28.8208 14.7116C28.8125 14.8133 28.246 14.8462 27.5547 14.7854Z" fill="white"/>
<path d="M30.0721 15.5061C29.2809 14.6967 27.6253 14.1494 26.6892 14.3837C25.7532 14.6189 26.857 14.7495 27.1687 14.7754C27.4813 14.8013 28.1047 14.9319 29.0169 14.7754" stroke="black" stroke-width="0.653319"/>
<path d="M21.0906 12.7229V21.9765C20.9943 22.8806 22.1137 24.1675 22.914 24.5503C22.914 24.5503 24.8016 23.8545 24.9291 21.9765V12.2006H24.2892V20.6537C24.258 21.5239 23.7455 23.089 23.0415 23.3332C23.0415 23.3332 21.6663 23.089 21.6022 20.6886V12.4458L21.0906 12.7229Z" fill="#FFCC00"/>
<path d="M21.0906 12.7229V21.9765C20.9943 22.8806 22.1137 24.1675 22.914 24.5503C22.914 24.5503 24.8016 23.8545 24.9291 21.9765V12.2006H24.2892V20.6537C24.258 21.5239 23.7455 23.089 23.0415 23.3332C23.0415 23.3332 21.6663 23.089 21.6022 20.6886V12.4458L21.0906 12.7229Z" fill="#BCAC0B" stroke="black" stroke-width="0.653319"/>
<path d="M2.26303 25.3787C2.825 25.3787 3.28064 24.8833 3.28064 24.2722C3.28064 23.6621 2.825 23.1657 2.26303 23.1657C1.70105 23.1657 1.24542 23.6611 1.24542 24.2722C1.24542 24.8833 1.70105 25.3787 2.26303 25.3787Z" fill="white"/>
<path d="M2.26303 25.3787C2.825 25.3787 3.28064 24.8833 3.28064 24.2722C3.28064 23.6621 2.825 23.1657 2.26303 23.1657C1.70105 23.1657 1.24542 23.6611 1.24542 24.2722C1.24542 24.8833 1.70105 25.3787 2.26303 25.3787Z" stroke="black" stroke-width="1.0064"/>
<path d="M1.6268 22.8348C2.18969 22.8348 2.64532 22.3394 2.64532 21.7283C2.64532 21.1182 2.18969 20.6218 1.6268 20.6218C1.06482 20.6218 0.609192 21.1172 0.609192 21.7283C0.609192 22.3394 1.06482 22.8348 1.6268 22.8348Z" fill="white"/>
<path d="M1.6268 22.8348C2.18969 22.8348 2.64532 22.3394 2.64532 21.7283C2.64532 21.1182 2.18969 20.6218 1.6268 20.6218C1.06482 20.6218 0.609192 21.1172 0.609192 21.7283C0.609192 22.3394 1.06482 22.8348 1.6268 22.8348Z" stroke="black" stroke-width="1.0064"/>
<path d="M1.96328 19.7566C2.52526 19.7566 2.98089 19.2612 2.98089 18.6491C2.98089 18.038 2.52526 17.5426 1.96328 17.5426C1.40131 17.5426 0.945679 18.038 0.945679 18.6491C0.945679 19.2612 1.40131 19.7566 1.96328 19.7566Z" fill="white"/>
<path d="M1.96328 19.7566C2.52526 19.7566 2.98089 19.2612 2.98089 18.6491C2.98089 18.038 2.52526 17.5426 1.96328 17.5426C1.40131 17.5426 0.945679 18.038 0.945679 18.6491C0.945679 19.2612 1.40131 19.7566 1.96328 19.7566Z" stroke="black" stroke-width="1.0064"/>
<path d="M3.54648 17.1997C4.10937 17.1997 4.565 16.7043 4.565 16.0932C4.565 15.4812 4.10937 14.9857 3.54648 14.9857C2.98451 14.9857 2.52887 15.4812 2.52887 16.0932C2.52887 16.7043 2.98451 17.1997 3.54648 17.1997Z" fill="white"/>
<path d="M3.54648 17.1997C4.10937 17.1997 4.565 16.7043 4.565 16.0932C4.565 15.4812 4.10937 14.9857 3.54648 14.9857C2.98451 14.9857 2.52887 15.4812 2.52887 16.0932C2.52887 16.7043 2.98451 17.1997 3.54648 17.1997Z" stroke="black" stroke-width="1.0064"/>
<path d="M5.41855 15.3346C5.98052 15.3346 6.43615 14.8392 6.43615 14.2272C6.43615 13.6161 5.98052 13.1207 5.41855 13.1207C4.85658 13.1207 4.40002 13.6161 4.40002 14.2272C4.40002 14.8392 4.85658 15.3346 5.41855 15.3346Z" fill="white"/>
<path d="M5.41855 15.3346C5.98052 15.3346 6.43615 14.8392 6.43615 14.2272C6.43615 13.6161 5.98052 13.1207 5.41855 13.1207C4.85658 13.1207 4.40002 13.6161 4.40002 14.2272C4.40002 14.8392 4.85658 15.3346 5.41855 15.3346Z" stroke="black" stroke-width="1.0064"/>
<path d="M7.82962 14.291C8.3916 14.291 8.84722 13.7955 8.84722 13.1835C8.84722 12.5724 8.3916 12.077 7.82962 12.077C7.26765 12.077 6.81201 12.5724 6.81201 13.1835C6.81201 13.7955 7.26765 14.291 7.82962 14.291Z" fill="white"/>
<path d="M7.82962 14.291C8.3916 14.291 8.84722 13.7955 8.84722 13.1835C8.84722 12.5724 8.3916 12.077 7.82962 12.077C7.26765 12.077 6.81201 12.5724 6.81201 13.1835C6.81201 13.7955 7.26765 14.291 7.82962 14.291Z" stroke="black" stroke-width="1.0064"/>
<path d="M10.3489 13.7955C10.9109 13.7955 11.3665 13.2991 11.3665 12.6881C11.3665 12.077 10.9109 11.5816 10.3489 11.5816C9.78692 11.5816 9.3313 12.077 9.3313 12.6881C9.3313 13.2991 9.78692 13.7955 10.3489 13.7955Z" fill="white"/>
<path d="M10.3489 13.7955C10.9109 13.7955 11.3665 13.2991 11.3665 12.6881C11.3665 12.077 10.9109 11.5816 10.3489 11.5816C9.78692 11.5816 9.3313 12.077 9.3313 12.6881C9.3313 13.2991 9.78692 13.7955 10.3489 13.7955Z" stroke="black" stroke-width="1.0064"/>
<path d="M12.749 13.639C13.311 13.639 13.7666 13.1426 13.7666 12.5316C13.7666 11.9205 13.311 11.4251 12.749 11.4251C12.1861 11.4251 11.7305 11.9205 11.7305 12.5316C11.7305 13.1426 12.1861 13.639 12.749 13.639Z" fill="white"/>
<path d="M12.749 13.639C13.311 13.639 13.7666 13.1426 13.7666 12.5316C13.7666 11.9205 13.311 11.4251 12.749 11.4251C12.1861 11.4251 11.7305 11.9205 11.7305 12.5316C11.7305 13.1426 12.1861 13.639 12.749 13.639Z" stroke="black" stroke-width="1.0064"/>
<path d="M14.9079 13.8474C15.4699 13.8474 15.9255 13.3519 15.9255 12.7409C15.9255 12.1288 15.4699 11.6334 14.9079 11.6334C14.346 11.6334 13.8903 12.1288 13.8903 12.7409C13.8903 13.3519 14.346 13.8474 14.9079 13.8474Z" fill="white"/>
<path d="M14.9079 13.8474C15.4699 13.8474 15.9255 13.3519 15.9255 12.7409C15.9255 12.1288 15.4699 11.6334 14.9079 11.6334C14.346 11.6334 13.8903 12.1288 13.8903 12.7409C13.8903 13.3519 14.346 13.8474 14.9079 13.8474Z" stroke="black" stroke-width="1.0064"/>
<path d="M21.064 13.012C21.626 13.012 22.0825 12.5166 22.0825 11.9056C22.0825 11.2955 21.626 10.7991 21.064 10.7991C20.502 10.7991 20.0464 11.2945 20.0464 11.9056C20.0464 12.5166 20.502 13.012 21.064 13.012Z" fill="white"/>
<path d="M21.064 13.012C21.626 13.012 22.0825 12.5166 22.0825 11.9056C22.0825 11.2955 21.626 10.7991 21.064 10.7991C20.502 10.7991 20.0464 11.2945 20.0464 11.9056C20.0464 12.5166 20.502 13.012 21.064 13.012Z" stroke="black" stroke-width="1.0064"/>
<path d="M23.0314 13.5862C23.5934 13.5862 24.0499 13.0908 24.0499 12.4797C24.0499 11.8687 23.5934 11.3732 23.0314 11.3732C22.4694 11.3732 22.0138 11.8687 22.0138 12.4797C22.0138 13.0908 22.4694 13.5862 23.0314 13.5862Z" fill="white"/>
<path d="M23.0314 13.5862C23.5934 13.5862 24.0499 13.0908 24.0499 12.4797C24.0499 11.8687 23.5934 11.3732 23.0314 11.3732C22.4694 11.3732 22.0138 11.8687 22.0138 12.4797C22.0138 13.0908 22.4694 13.5862 23.0314 13.5862Z" stroke="black" stroke-width="1.0064"/>
<path d="M23.0314 21.7781C23.5934 21.7781 24.0499 21.2827 24.0499 20.6717C24.0499 20.0606 23.5934 19.5652 23.0314 19.5652C22.4694 19.5652 22.0138 20.0606 22.0138 20.6717C22.0138 21.2827 22.4694 21.7781 23.0314 21.7781Z" fill="white"/>
<path d="M23.0314 21.7781C23.5934 21.7781 24.0499 21.2827 24.0499 20.6717C24.0499 20.0606 23.5934 19.5652 23.0314 19.5652C22.4694 19.5652 22.0138 20.0606 22.0138 20.6717C22.0138 21.2827 22.4694 21.7781 23.0314 21.7781Z" stroke="black" stroke-width="1.0064"/>
<path d="M44.0747 26.0834C44.6367 26.0834 45.0923 25.588 45.0923 24.976C45.0923 24.3649 44.6367 23.8695 44.0747 23.8695C43.5118 23.8695 43.0562 24.3649 43.0562 24.976C43.0562 25.588 43.5118 26.0834 44.0747 26.0834Z" fill="white"/>
<path d="M44.0747 26.0834C44.6367 26.0834 45.0923 25.588 45.0923 24.976C45.0923 24.3649 44.6367 23.8695 44.0747 23.8695C43.5118 23.8695 43.0562 24.3649 43.0562 24.976C43.0562 25.588 43.5118 26.0834 44.0747 26.0834Z" stroke="black" stroke-width="1.0064"/>
<path d="M44.6019 23.3302C45.1648 23.3302 45.6204 22.8348 45.6204 22.2237C45.6204 21.6127 45.1648 21.1172 44.6019 21.1172C44.0399 21.1172 43.5843 21.6127 43.5843 22.2237C43.5843 22.8348 44.0399 23.3302 44.6019 23.3302Z" fill="white"/>
<path d="M44.6019 23.3302C45.1648 23.3302 45.6204 22.8348 45.6204 22.2237C45.6204 21.6127 45.1648 21.1172 44.6019 21.1172C44.0399 21.1172 43.5843 21.6127 43.5843 22.2237C43.5843 22.8348 44.0399 23.3302 44.6019 23.3302Z" stroke="black" stroke-width="1.0064"/>
<path d="M44.1701 20.4613C44.733 20.4613 45.1886 19.9659 45.1886 19.3539C45.1886 18.7428 44.733 18.2474 44.1701 18.2474C43.6081 18.2474 43.1525 18.7428 43.1525 19.3539C43.1525 19.9659 43.6081 20.4613 44.1701 20.4613Z" fill="white"/>
<path d="M44.1701 20.4613C44.733 20.4613 45.1886 19.9659 45.1886 19.3539C45.1886 18.7428 44.733 18.2474 44.1701 18.2474C43.6081 18.2474 43.1525 18.7428 43.1525 19.3539C43.1525 19.9659 43.6081 20.4613 44.1701 20.4613Z" stroke="black" stroke-width="1.0064"/>
<path d="M43.0663 17.748C43.6292 17.748 44.0848 17.2515 44.0848 16.6405C44.0848 16.0304 43.6292 15.534 43.0663 15.534C42.5043 15.534 42.0487 16.0294 42.0487 16.6405C42.0487 17.2515 42.5043 17.748 43.0663 17.748Z" fill="white"/>
<path d="M43.0663 17.748C43.6292 17.748 44.0848 17.2515 44.0848 16.6405C44.0848 16.0304 43.6292 15.534 43.0663 15.534C42.5043 15.534 42.0487 16.0294 42.0487 16.6405C42.0487 17.2515 42.5043 17.748 43.0663 17.748Z" stroke="black" stroke-width="1.0064"/>
<path d="M41.1952 15.8689C41.7572 15.8689 42.2128 15.3735 42.2128 14.7625C42.2128 14.1514 41.7572 13.656 41.1952 13.656C40.6333 13.656 40.1767 14.1514 40.1767 14.7625C40.1767 15.3735 40.6333 15.8689 41.1952 15.8689Z" fill="white"/>
<path d="M41.1952 15.8689C41.7572 15.8689 42.2128 15.3735 42.2128 14.7625C42.2128 14.1514 41.7572 13.656 41.1952 13.656C40.6333 13.656 40.1767 14.1514 40.1767 14.7625C40.1767 15.3735 40.6333 15.8689 41.1952 15.8689Z" stroke="black" stroke-width="1.0064"/>
<path d="M38.94 14.6688C39.5019 14.6688 39.9576 14.1733 39.9576 13.5623C39.9576 12.9512 39.5019 12.4558 38.94 12.4558C38.3771 12.4558 37.9214 12.9512 37.9214 13.5623C37.9214 14.1733 38.3771 14.6688 38.94 14.6688Z" fill="white"/>
<path d="M38.94 14.6688C39.5019 14.6688 39.9576 14.1733 39.9576 13.5623C39.9576 12.9512 39.5019 12.4558 38.94 12.4558C38.3771 12.4558 37.9214 12.9512 37.9214 13.5623C37.9214 14.1733 38.3771 14.6688 38.94 14.6688Z" stroke="black" stroke-width="1.0064"/>
<path d="M36.3721 14.0298C36.935 14.0298 37.3906 13.5344 37.3906 12.9233C37.3906 12.3133 36.935 11.8168 36.3721 11.8168C35.8101 11.8168 35.3545 12.3123 35.3545 12.9233C35.3545 13.5344 35.8101 14.0298 36.3721 14.0298Z" fill="white"/>
<path d="M36.3721 14.0298C36.935 14.0298 37.3906 13.5344 37.3906 12.9233C37.3906 12.3133 36.935 11.8168 36.3721 11.8168C35.8101 11.8168 35.3545 12.3123 35.3545 12.9233C35.3545 13.5344 35.8101 14.0298 36.3721 14.0298Z" stroke="black" stroke-width="1.0064"/>
<path d="M34.0206 13.8215C34.5835 13.8215 35.0391 13.326 35.0391 12.714C35.0391 12.1039 34.5835 11.6075 34.0206 11.6075C33.4586 11.6075 33.003 12.1029 33.003 12.714C33.003 13.326 33.4586 13.8215 34.0206 13.8215Z" fill="white"/>
<path d="M34.0206 13.8215C34.5835 13.8215 35.0391 13.326 35.0391 12.714C35.0391 12.1039 34.5835 11.6075 34.0206 11.6075C33.4586 11.6075 33.003 12.1029 33.003 12.714C33.003 13.326 33.4586 13.8215 34.0206 13.8215Z" stroke="black" stroke-width="1.0064"/>
<path d="M31.8891 13.5164C32.452 13.5164 32.9077 13.021 32.9077 12.4099C32.9077 11.7989 32.452 11.3035 31.8891 11.3035C31.3272 11.3035 30.8715 11.7989 30.8715 12.4099C30.8715 13.021 31.3272 13.5164 31.8891 13.5164Z" fill="white"/>
<path d="M31.8891 13.5164C32.452 13.5164 32.9077 13.021 32.9077 12.4099C32.9077 11.7989 32.452 11.3035 31.8891 11.3035C31.3272 11.3035 30.8715 11.7989 30.8715 12.4099C30.8715 13.021 31.3272 13.5164 31.8891 13.5164Z" stroke="black" stroke-width="1.0064"/>
<path d="M33.2652 22.5746C33.8272 22.5746 34.2828 22.0782 34.2828 21.4671C34.2828 20.8571 33.8272 20.3606 33.2652 20.3606C32.7033 20.3606 32.2476 20.8561 32.2476 21.4671C32.2476 22.0782 32.7033 22.5746 33.2652 22.5746Z" fill="white"/>
<path d="M33.2652 22.5746C33.8272 22.5746 34.2828 22.0782 34.2828 21.4671C34.2828 20.8571 33.8272 20.3606 33.2652 20.3606C32.7033 20.3606 32.2476 20.8561 32.2476 21.4671C32.2476 22.0782 32.7033 22.5746 33.2652 22.5746Z" stroke="black" stroke-width="1.0064"/>
<path d="M33.7932 20.4344C34.3552 20.4344 34.8108 19.939 34.8108 19.3279C34.8108 18.7169 34.3552 18.2215 33.7932 18.2215C33.2303 18.2215 32.7747 18.7169 32.7747 19.3279C32.7747 19.939 33.2303 20.4344 33.7932 20.4344Z" fill="white"/>
<path d="M33.7932 20.4344C34.3552 20.4344 34.8108 19.939 34.8108 19.3279C34.8108 18.7169 34.3552 18.2215 33.7932 18.2215C33.2303 18.2215 32.7747 18.7169 32.7747 19.3279C32.7747 19.939 33.2303 20.4344 33.7932 20.4344Z" stroke="black" stroke-width="1.0064"/>
<path d="M25.2389 13.3519C25.8018 13.3519 26.2575 12.8555 26.2575 12.2445C26.2575 11.6334 25.8018 11.138 25.2389 11.138C24.6769 11.138 24.2213 11.6334 24.2213 12.2445C24.2213 12.8555 24.6769 13.3519 25.2389 13.3519Z" fill="white"/>
<path d="M25.2389 13.3519C25.8018 13.3519 26.2575 12.8555 26.2575 12.2445C26.2575 11.6334 25.8018 11.138 25.2389 11.138C24.6769 11.138 24.2213 11.6334 24.2213 12.2445C24.2213 12.8555 24.6769 13.3519 25.2389 13.3519Z" stroke="black" stroke-width="1.0064"/>
<path d="M20.2582 13.0519C20.8211 13.0519 21.2767 12.5565 21.2767 11.9444C21.2767 11.3344 20.8211 10.8389 20.2582 10.8389C19.6962 10.8389 19.2406 11.3334 19.2406 11.9444C19.2406 12.5565 19.6962 13.0519 20.2582 13.0519Z" fill="white"/>
<path d="M20.2582 13.0519C20.8211 13.0519 21.2767 12.5565 21.2767 11.9444C21.2767 11.3344 20.8211 10.8389 20.2582 10.8389C19.6962 10.8389 19.2406 11.3334 19.2406 11.9444C19.2406 12.5565 19.6962 13.0519 20.2582 13.0519Z" stroke="black" stroke-width="1.0064"/>
<path d="M19.059 12.9991C19.621 12.9991 20.0767 12.5036 20.0767 11.8926C20.0767 11.2815 19.621 10.7861 19.059 10.7861C18.4971 10.7861 18.0414 11.2815 18.0414 11.8926C18.0414 12.5036 18.4971 12.9991 19.059 12.9991Z" fill="white"/>
<path d="M19.059 12.9991C19.621 12.9991 20.0767 12.5036 20.0767 11.8926C20.0767 11.2815 19.621 10.7861 19.059 10.7861C18.4971 10.7861 18.0414 11.2815 18.0414 11.8926C18.0414 12.5036 18.4971 12.9991 19.059 12.9991Z" stroke="black" stroke-width="1.0064"/>
<path d="M12.5922 22.6005C13.1542 22.6005 13.6107 22.1051 13.6107 21.493C13.6107 20.882 13.1542 20.3866 12.5922 20.3866C12.0302 20.3866 11.5746 20.882 11.5746 21.493C11.5746 22.1051 12.0302 22.6005 12.5922 22.6005Z" fill="white"/>
<path d="M12.5922 22.6005C13.1542 22.6005 13.6107 22.1051 13.6107 21.493C13.6107 20.882 13.1542 20.3866 12.5922 20.3866C12.0302 20.3866 11.5746 20.882 11.5746 21.493C11.5746 22.1051 12.0302 22.6005 12.5922 22.6005Z" stroke="black" stroke-width="1.0064"/>
<path d="M12.2925 19.9519C12.8544 19.9519 13.311 19.4565 13.311 18.8455C13.311 18.2344 12.8544 17.739 12.2925 17.739C11.7305 17.739 11.2748 18.2344 11.2748 18.8455C11.2748 19.4565 11.7305 19.9519 12.2925 19.9519Z" fill="white"/>
<path d="M12.2925 19.9519C12.8544 19.9519 13.311 19.4565 13.311 18.8455C13.311 18.2344 12.8544 17.739 12.2925 17.739C11.7305 17.739 11.2748 18.2344 11.2748 18.8455C11.2748 19.4565 11.7305 19.9519 12.2925 19.9519Z" stroke="black" stroke-width="1.0064"/>
<path d="M13.0121 17.3951C13.575 17.3951 14.0306 16.8997 14.0306 16.2886C14.0306 15.6775 13.575 15.1821 13.0121 15.1821C12.4501 15.1821 11.9945 15.6775 11.9945 16.2886C11.9945 16.8997 12.4501 17.3951 13.0121 17.3951Z" fill="white"/>
<path d="M13.0121 17.3951C13.575 17.3951 14.0306 16.8997 14.0306 16.2886C14.0306 15.6775 13.575 15.1821 13.0121 15.1821C12.4501 15.1821 11.9945 15.6775 11.9945 16.2886C11.9945 16.8997 12.4501 17.3951 13.0121 17.3951Z" stroke="black" stroke-width="1.0064"/>
<path d="M17.4868 13.2473C18.0497 13.2473 18.5053 12.7519 18.5053 12.1408C18.5053 11.5288 18.0497 11.0333 17.4868 11.0333C16.9248 11.0333 16.4692 11.5288 16.4692 12.1408C16.4692 12.7519 16.9248 13.2473 17.4868 13.2473Z" fill="white"/>
<path d="M17.4868 13.2473C18.0497 13.2473 18.5053 12.7519 18.5053 12.1408C18.5053 11.5288 18.0497 11.0333 17.4868 11.0333C16.9248 11.0333 16.4692 11.5288 16.4692 12.1408C16.4692 12.7519 16.9248 13.2473 17.4868 13.2473Z" stroke="black" stroke-width="1.0064"/>
<path d="M15.7954 14.0039C16.3583 14.0039 16.8139 13.5084 16.8139 12.8974C16.8139 12.2853 16.3583 11.7899 15.7954 11.7899C15.2334 11.7899 14.7778 12.2853 14.7778 12.8974C14.7778 13.5084 15.2334 14.0039 15.7954 14.0039Z" fill="white"/>
<path d="M15.7954 14.0039C16.3583 14.0039 16.8139 13.5084 16.8139 12.8974C16.8139 12.2853 16.3583 11.7899 15.7954 11.7899C15.2334 11.7899 14.7778 12.2853 14.7778 12.8974C14.7778 13.5084 15.2334 14.0039 15.7954 14.0039Z" stroke="black" stroke-width="1.0064"/>
<path d="M14.1764 15.4911C14.7383 15.4911 15.194 14.9947 15.194 14.3837C15.194 13.7726 14.7383 13.2772 14.1764 13.2772C13.6135 13.2772 13.1578 13.7726 13.1578 14.3837C13.1578 14.9947 13.6135 15.4911 14.1764 15.4911Z" fill="white"/>
<path d="M14.1764 15.4911C14.7383 15.4911 15.194 14.9947 15.194 14.3837C15.194 13.7726 14.7383 13.2772 14.1764 13.2772C13.6135 13.2772 13.1578 13.7726 13.1578 14.3837C13.1578 14.9947 13.6135 15.4911 14.1764 15.4911Z" stroke="black" stroke-width="1.0064"/>
<path d="M23.0314 14.8392C23.5934 14.8392 24.0499 14.3428 24.0499 13.7317C24.0499 13.1217 23.5934 12.6253 23.0314 12.6253C22.4694 12.6253 22.0138 13.1207 22.0138 13.7317C22.0138 14.3428 22.4694 14.8392 23.0314 14.8392Z" fill="white"/>
<path d="M23.0314 14.8392C23.5934 14.8392 24.0499 14.3428 24.0499 13.7317C24.0499 13.1217 23.5934 12.6253 23.0314 12.6253C22.4694 12.6253 22.0138 13.1207 22.0138 13.7317C22.0138 14.3428 22.4694 14.8392 23.0314 14.8392Z" stroke="black" stroke-width="1.0064"/>
<path d="M23.0314 16.9256C23.5934 16.9256 24.0499 16.4302 24.0499 15.8191C24.0499 15.208 23.5934 14.7126 23.0314 14.7126C22.4694 14.7126 22.0138 15.208 22.0138 15.8191C22.0138 16.4302 22.4694 16.9256 23.0314 16.9256Z" fill="white"/>
<path d="M23.0314 16.9256C23.5934 16.9256 24.0499 16.4302 24.0499 15.8191C24.0499 15.208 23.5934 14.7126 23.0314 14.7126C22.4694 14.7126 22.0138 15.208 22.0138 15.8191C22.0138 16.4302 22.4694 16.9256 23.0314 16.9256Z" stroke="black" stroke-width="1.0064"/>
<path d="M23.0314 19.1694C23.5934 19.1694 24.0499 18.674 24.0499 18.063C24.0499 17.4529 23.5934 16.9565 23.0314 16.9565C22.4694 16.9565 22.0138 17.4519 22.0138 18.063C22.0138 18.674 22.4694 19.1694 23.0314 19.1694Z" fill="white"/>
<path d="M23.0314 19.1694C23.5934 19.1694 24.0499 18.674 24.0499 18.063C24.0499 17.4529 23.5934 16.9565 23.0314 16.9565C22.4694 16.9565 22.0138 17.4519 22.0138 18.063C22.0138 18.674 22.4694 19.1694 23.0314 19.1694Z" stroke="black" stroke-width="1.0064"/>
<path d="M26.5591 13.0649C27.1211 13.0649 27.5767 12.5684 27.5767 11.9574C27.5767 11.3473 27.1211 10.8509 26.5591 10.8509C25.9962 10.8509 25.5406 11.3463 25.5406 11.9574C25.5406 12.5684 25.9962 13.0649 26.5591 13.0649Z" fill="white"/>
<path d="M26.5591 13.0649C27.1211 13.0649 27.5767 12.5684 27.5767 11.9574C27.5767 11.3473 27.1211 10.8509 26.5591 10.8509C25.9962 10.8509 25.5406 11.3463 25.5406 11.9574C25.5406 12.5684 25.9962 13.0649 26.5591 13.0649Z" stroke="black" stroke-width="1.0064"/>
<path d="M27.9507 12.7519C28.5127 12.7519 28.9683 12.2554 28.9683 11.6444C28.9683 11.0343 28.5127 10.5379 27.9507 10.5379C27.3878 10.5379 26.9322 11.0333 26.9322 11.6444C26.9322 12.2554 27.3878 12.7519 27.9507 12.7519Z" fill="white"/>
<path d="M27.9507 12.7519C28.5127 12.7519 28.9683 12.2554 28.9683 11.6444C28.9683 11.0343 28.5127 10.5379 27.9507 10.5379C27.3878 10.5379 26.9322 11.0333 26.9322 11.6444C26.9322 12.2554 27.3878 12.7519 27.9507 12.7519Z" stroke="black" stroke-width="1.0064"/>
<path d="M29.5221 13.026C30.084 13.026 30.5397 12.5296 30.5397 11.9185C30.5397 11.3075 30.084 10.812 29.5221 10.812C28.9601 10.812 28.5045 11.3075 28.5045 11.9185C28.5045 12.5296 28.9601 13.026 29.5221 13.026Z" fill="white"/>
<path d="M29.5221 13.026C30.084 13.026 30.5397 12.5296 30.5397 11.9185C30.5397 11.3075 30.084 10.812 29.5221 10.812C28.9601 10.812 28.5045 11.3075 28.5045 11.9185C28.5045 12.5296 28.9601 13.026 29.5221 13.026Z" stroke="black" stroke-width="1.0064"/>
<path d="M33.4568 17.721C34.0188 17.721 34.4753 17.2256 34.4753 16.6146C34.4753 16.0035 34.0188 15.5081 33.4568 15.5081C32.8948 15.5081 32.4392 16.0035 32.4392 16.6146C32.4392 17.2256 32.8948 17.721 33.4568 17.721Z" fill="white"/>
<path d="M33.4568 17.721C34.0188 17.721 34.4753 17.2256 34.4753 16.6146C34.4753 16.0035 34.0188 15.5081 33.4568 15.5081C32.8948 15.5081 32.4392 16.0035 32.4392 16.6146C32.4392 17.2256 32.8948 17.721 33.4568 17.721Z" stroke="black" stroke-width="1.0064"/>
<path d="M31.1053 14.0168C31.6682 14.0168 32.1238 13.5214 32.1238 12.9103C32.1238 12.2983 31.6682 11.8029 31.1053 11.8029C30.5433 11.8029 30.0877 12.2983 30.0877 12.9103C30.0877 13.5214 30.5433 14.0168 31.1053 14.0168Z" fill="white"/>
<path d="M31.1053 14.0168C31.6682 14.0168 32.1238 13.5214 32.1238 12.9103C32.1238 12.2983 31.6682 11.8029 31.1053 11.8029C30.5433 11.8029 30.0877 12.2983 30.0877 12.9103C30.0877 13.5214 30.5433 14.0168 31.1053 14.0168Z" stroke="black" stroke-width="1.0064"/>
<path d="M32.5456 15.53C33.1075 15.53 33.5632 15.0346 33.5632 14.4225C33.5632 13.8115 33.1075 13.3161 32.5456 13.3161C31.9827 13.3161 31.527 13.8115 31.527 14.4225C31.527 15.0346 31.9827 15.53 32.5456 15.53Z" fill="white"/>
<path d="M32.5456 15.53C33.1075 15.53 33.5632 15.0346 33.5632 14.4225C33.5632 13.8115 33.1075 13.3161 32.5456 13.3161C31.9827 13.3161 31.527 13.8115 31.527 14.4225C31.527 15.0346 31.9827 15.53 32.5456 15.53Z" stroke="black" stroke-width="1.0064"/>
<path d="M22.9663 32.1053L20.2792 33.5666L22.6976 35.2224L25.5644 33.6643L22.9663 32.1053Z" fill="white"/>
<path d="M22.9663 32.1053L20.2792 33.5666L22.6976 35.2224L25.5644 33.6643L22.9663 32.1053Z" stroke="black" stroke-width="0.501998"/>
<path d="M17.0917 32.4123L13.0607 33.0901C13.0607 33.0901 13.0121 35.4387 13.2046 36.0129L17.331 35.3858C17.331 35.3858 17.5235 33.1948 17.0917 32.4123Z" fill="white"/>
<path d="M17.0917 32.4123L13.0607 33.0901C13.0607 33.0901 13.0121 35.4387 13.2046 36.0129L17.331 35.3858C17.331 35.3858 17.5235 33.1948 17.0917 32.4123Z" stroke="black" stroke-width="0.501998"/>
<path d="M16.6434 33.2467C16.6434 33.2467 14.2121 33.4899 13.6043 33.7341L13.6364 35.334C13.6364 35.334 15.2362 35.021 16.7076 34.8815L16.6434 33.2467Z" fill="#058E6E" fill-opacity="0.941176"/>
<path d="M16.6434 33.2467C16.6434 33.2467 14.2121 33.4899 13.6043 33.7341L13.6364 35.334C13.6364 35.334 15.2362 35.021 16.7076 34.8815L16.6434 33.2467Z" stroke="black" stroke-width="0.501998"/>
<path d="M28.5851 32.5379L32.6152 33.2167C32.6152 33.2167 32.6638 35.5643 32.4713 36.1385L28.3449 35.5124C28.3449 35.5124 28.1524 33.3204 28.5851 32.5379Z" fill="white"/>
<path d="M28.5851 32.5379L32.6152 33.2167C32.6152 33.2167 32.6638 35.5643 32.4713 36.1385L28.3449 35.5124C28.3449 35.5124 28.1524 33.3204 28.5851 32.5379Z" stroke="black" stroke-width="0.501998"/>
<path d="M29.0325 33.3732C29.0325 33.3732 31.4638 33.6165 32.0716 33.8597L32.0395 35.4596C32.0395 35.4596 30.4397 35.1466 28.9683 35.008L29.0325 33.3732Z" fill="#058E6E" fill-opacity="0.941176"/>
<path d="M29.0325 33.3732C29.0325 33.3732 31.4638 33.6165 32.0716 33.8597L32.0395 35.4596C32.0395 35.4596 30.4397 35.1466 28.9683 35.008L29.0325 33.3732Z" stroke="black" stroke-width="0.501998"/>
<path d="M7.01367 34.4997C7.01367 34.4997 21.1538 28.7898 39.1343 34.9821M7.5894 37.7862C7.5894 37.7862 21.2666 32.2239 38.1341 38.0334M7.65357 34.2903L10.4048 35.1596L8.48508 37.3865" stroke="black" stroke-width="0.501998"/>
<path d="M7.71776 36.9688L9.28543 35.5423L7.49408 35.1596C7.49408 35.1596 7.73794 35.4606 7.68752 35.7367C7.63801 36.0128 7.70218 36.7256 7.71776 36.9688Z" fill="#FF0000"/>
<path d="M7.71776 36.9688L9.28543 35.5423L7.49408 35.1596C7.49408 35.1596 7.73794 35.4606 7.68752 35.7367C7.63801 36.0128 7.70218 36.7256 7.71776 36.9688Z" stroke="black" stroke-width="0.501998"/>
<path d="M38.8299 34.8645L35.9027 35.4387L37.8701 37.9427" stroke="black" stroke-width="0.501998"/>
<path d="M37.9664 37.0565L36.8626 35.8035L38.4458 35.647C38.4458 35.647 38.0141 35.96 38.0141 36.2212C38.0141 36.4824 38.0626 36.8472 37.9664 37.0565Z" fill="#FF0000"/>
<path d="M37.9664 37.0565L36.8626 35.8035L38.4458 35.647C38.4458 35.647 38.0141 35.96 38.0141 36.2212C38.0141 36.4824 38.0626 36.8472 37.9664 37.0565Z" stroke="black" stroke-width="0.501998"/>
<path d="M11.2372 34.5106C11.4866 34.5106 11.6892 34.3342 11.6892 34.1159C11.6892 33.8996 11.4866 33.7231 11.2372 33.7231C10.987 33.7231 10.7844 33.8996 10.7844 34.1159C10.7844 34.3342 10.987 34.5106 11.2372 34.5106ZM19.1022 33.5357C19.3524 33.5357 19.555 33.3593 19.555 33.143C19.555 32.9247 19.3524 32.7492 19.1022 32.7492C18.8528 32.7492 18.6502 32.9247 18.6502 33.143C18.6502 33.3593 18.8528 33.5357 19.1022 33.5357ZM19.1022 34.9273C19.3524 34.9273 19.555 34.7509 19.555 34.5336C19.555 34.3162 19.3524 34.1408 19.1022 34.1408C18.8528 34.1408 18.6502 34.3162 18.6502 34.5336C18.6502 34.7509 18.8528 34.9273 19.1022 34.9273ZM26.8442 33.6055C27.0945 33.6055 27.2971 33.4301 27.2971 33.2118C27.2971 32.9955 27.0945 32.819 26.8442 32.819C26.5949 32.819 26.3923 32.9945 26.3923 33.2118C26.3923 33.4301 26.5949 33.6055 26.8442 33.6055ZM34.5221 35.1366C34.7724 35.1366 34.975 34.9602 34.975 34.7419C34.975 34.5256 34.7724 34.3491 34.5221 34.3491C34.2727 34.3491 34.0701 34.5256 34.0701 34.7419C34.0701 34.9602 34.2727 35.1366 34.5221 35.1366ZM34.3947 36.2491C34.645 36.2491 34.8476 36.0727 34.8476 35.8564C34.8476 35.64 34.645 35.4616 34.3947 35.4616C34.1444 35.4616 33.9418 35.639 33.9418 35.8564C33.9418 36.0727 34.1444 36.2491 34.3947 36.2491ZM26.8442 34.9971C27.0945 34.9971 27.2971 34.8206 27.2971 34.6033C27.2971 34.387 27.0945 34.2106 26.8442 34.2106C26.5949 34.2106 26.3923 34.386 26.3923 34.6033C26.3923 34.8206 26.5949 34.9971 26.8442 34.9971ZM11.6168 36.2491C11.8661 36.2491 12.0687 36.0727 12.0687 35.8564C12.0687 35.64 11.8661 35.4616 11.6168 35.4616C11.3665 35.4616 11.1639 35.639 11.1639 35.8564C11.1639 36.0727 11.3665 36.2491 11.6168 36.2491Z" stroke="black" stroke-width="0.501998"/>
<path d="M6.75793 30.0119C6.75793 30.0119 6.82211 33.0034 8.61346 32.5858C10.4048 32.1681 10.2132 29.7328 10.3416 29.5943C10.469 29.4547 10.6606 29.4547 10.6606 29.4547C10.6606 29.4547 10.9164 31.8202 12.5794 31.5421C14.2433 31.264 14.1791 28.3423 13.9875 27.8548L14.3716 27.7153C14.3716 27.7153 15.0106 31.1244 16.9303 30.638C18.85 30.1505 18.6584 27.9944 18.6584 27.9944H18.806C18.806 27.9944 19.2342 30.2901 20.7697 30.1505C22.3044 30.0119 22.6253 29.4547 22.4327 27.159L23.4568 26.9507C23.4568 26.9507 23.0726 30.2901 24.9273 30.2203C26.7837 30.1505 26.8469 28.5506 26.9753 28.2725H27.2549C27.2549 28.2725 27.3594 30.638 28.895 30.638C30.4306 30.638 30.7496 28.6204 30.7496 27.8548L32.2494 27.9276C32.2494 27.9276 30.6864 31.0556 32.9902 31.4733C35.2931 31.89 35.3573 29.4547 35.3573 29.4547H35.8046C35.8046 29.4547 35.7405 32.5858 37.0203 32.6555C38.2991 32.7253 39.0674 32.2379 39.1948 29.9422L39.8989 30.2203C39.8989 30.2203 39.2883 33.9315 36.8919 33.2805C35.6121 32.9337 35.228 31.3337 35.2922 30.9161C35.2922 30.9161 34.3974 32.6545 32.6693 32.0983C30.9421 31.5421 31.1337 30.2203 31.1337 29.8026C31.1337 29.8026 30.0951 31.877 28.6383 31.4015C27.3594 30.9849 26.847 30.4974 26.847 29.5235C26.847 29.5235 26.2071 31.1234 24.9273 31.0546C23.6475 30.9849 23.0085 30.1495 22.9443 29.3849C22.9443 29.3849 22.6904 30.8802 20.9604 30.9848C19.809 31.0546 19.1691 30.4296 18.9133 29.5933C18.9133 29.5933 18.5823 31.1085 16.9303 31.3327C15.9072 31.4723 14.8832 30.8463 14.6265 29.8026C14.6265 29.8026 14.3716 31.8192 12.7077 32.0983C11.0438 32.3764 10.6597 31.1244 10.6597 31.1244C10.6597 31.1244 10.3406 32.7253 8.99667 33.0722C7.65269 33.4201 6.75702 32.7951 6.43707 31.3337C6.11712 29.8724 6.24546 29.2464 6.24546 29.2464L6.75701 30.0109" fill="#FFCC00"/>
<path d="M6.75793 30.0119C6.75793 30.0119 6.82211 33.0034 8.61346 32.5858C10.4048 32.1681 10.2132 29.7328 10.3416 29.5943C10.469 29.4547 10.6606 29.4547 10.6606 29.4547C10.6606 29.4547 10.9164 31.8202 12.5794 31.5421C14.2433 31.264 14.1791 28.3423 13.9875 27.8548L14.3716 27.7153C14.3716 27.7153 15.0106 31.1244 16.9303 30.638C18.85 30.1505 18.6584 27.9944 18.6584 27.9944H18.806C18.806 27.9944 19.2342 30.2901 20.7697 30.1505C22.3044 30.0119 22.6253 29.4547 22.4327 27.159L23.4568 26.9507C23.4568 26.9507 23.0726 30.2901 24.9273 30.2203C26.7837 30.1505 26.8469 28.5506 26.9753 28.2725H27.2549C27.2549 28.2725 27.3594 30.638 28.895 30.638C30.4306 30.638 30.7496 28.6204 30.7496 27.8548L32.2494 27.9276C32.2494 27.9276 30.6864 31.0556 32.9902 31.4733C35.2931 31.89 35.3573 29.4547 35.3573 29.4547H35.8046C35.8046 29.4547 35.7405 32.5858 37.0203 32.6555C38.2991 32.7253 39.0674 32.2379 39.1948 29.9422L39.8989 30.2203C39.8989 30.2203 39.2883 33.9315 36.8919 33.2805C35.6121 32.9337 35.228 31.3337 35.2922 30.9161C35.2922 30.9161 34.3974 32.6545 32.6693 32.0983C30.9421 31.5421 31.1337 30.2203 31.1337 29.8026C31.1337 29.8026 30.0951 31.877 28.6383 31.4015C27.3594 30.9849 26.847 30.4974 26.847 29.5235C26.847 29.5235 26.2071 31.1234 24.9273 31.0546C23.6475 30.9849 23.0085 30.1495 22.9443 29.3849C22.9443 29.3849 22.6904 30.8802 20.9604 30.9848C19.809 31.0546 19.1691 30.4296 18.9133 29.5933C18.9133 29.5933 18.5823 31.1085 16.9303 31.3327C15.9072 31.4723 14.8832 30.8463 14.6265 29.8026C14.6265 29.8026 14.3716 31.8192 12.7077 32.0983C11.0438 32.3764 10.6597 31.1244 10.6597 31.1244C10.6597 31.1244 10.3406 32.7253 8.99667 33.0722C7.65269 33.4201 6.75702 32.7951 6.43707 31.3337C6.11712 29.8724 6.24546 29.2464 6.24546 29.2464L6.75701 30.0109L6.75793 30.0119Z" fill="#BCAC0B" stroke="black" stroke-width="0.653319"/>
<path d="M10.469 30.1435C10.8192 30.1435 11.1025 29.8355 11.1025 29.4547C11.1025 29.0749 10.8192 28.7659 10.469 28.7659C10.1188 28.7659 9.83551 29.0749 9.83551 29.4547C9.83551 29.8355 10.1188 30.1435 10.469 30.1435Z" fill="#FFCC00"/>
<path d="M10.469 30.1435C10.8192 30.1435 11.1025 29.8355 11.1025 29.4547C11.1025 29.0749 10.8192 28.7659 10.469 28.7659C10.1188 28.7659 9.83551 29.0749 9.83551 29.4547C9.83551 29.8355 10.1188 30.1435 10.469 30.1435Z" fill="#BCAC0B" stroke="black" stroke-width="0.653319"/>
<path d="M18.8069 28.6921C19.1572 28.6921 19.4404 28.3831 19.4404 28.0033C19.4404 27.6225 19.1572 27.3145 18.8069 27.3145C18.4567 27.3145 18.1735 27.6225 18.1735 28.0033C18.1735 28.3831 18.4567 28.6921 18.8069 28.6921Z" fill="#FFCC00"/>
<path d="M18.8069 28.6921C19.1572 28.6921 19.4404 28.3831 19.4404 28.0033C19.4404 27.6225 19.1572 27.3145 18.8069 27.3145C18.4567 27.3145 18.1735 27.6225 18.1735 28.0033C18.1735 28.3831 18.4567 28.6921 18.8069 28.6921Z" fill="#BCAC0B" stroke="black" stroke-width="0.653319"/>
<path d="M27.2567 28.9613C27.6069 28.9613 27.8902 28.6523 27.8902 28.2725C27.8902 27.8917 27.6069 27.5837 27.2567 27.5837C26.9065 27.5837 26.6232 27.8917 26.6232 28.2725C26.6232 28.6523 26.9065 28.9613 27.2567 28.9613Z" fill="#FFCC00"/>
<path d="M27.2567 28.9613C27.6069 28.9613 27.8902 28.6523 27.8902 28.2725C27.8902 27.8917 27.6069 27.5837 27.2567 27.5837C26.9065 27.5837 26.6232 27.8917 26.6232 28.2725C26.6232 28.6523 26.9065 28.9613 27.2567 28.9613Z" fill="#BCAC0B" stroke="black" stroke-width="0.653319"/>
<path d="M35.6424 30.4266C35.9926 30.4266 36.2759 30.1176 36.2759 29.7378C36.2759 29.357 35.9926 29.049 35.6424 29.049C35.2931 29.049 35.0098 29.357 35.0098 29.7378C35.0098 30.1176 35.2931 30.4266 35.6424 30.4266Z" fill="#FFCC00"/>
<path d="M35.6424 30.4266C35.9926 30.4266 36.2759 30.1176 36.2759 29.7378C36.2759 29.357 35.9926 29.049 35.6424 29.049C35.2931 29.049 35.0098 29.357 35.0098 29.7378C35.0098 30.1176 35.2931 30.4266 35.6424 30.4266Z" fill="#BCAC0B" stroke="black" stroke-width="0.653319"/>
<path d="M22.6582 27.9246H22.0825C21.9386 28.5506 20.7147 28.9423 20.7147 28.9423C20.5708 28.4469 20.8825 27.7422 20.8825 27.7422C19.467 27.3504 19.467 26.8022 19.467 26.8022C19.6824 26.2808 20.9787 26.2031 20.9787 26.2031C20.6423 25.7336 20.7147 24.977 20.7147 24.977C21.5783 25.0298 22.2979 25.9678 22.2979 25.9678C22.2979 25.9678 21.4343 25.4993 21.5306 23.8286C21.5306 23.8286 22.0101 23.8037 22.2979 24.1416C22.2979 24.1416 22.2979 22.3423 22.9938 22.134H23.0653C23.7611 22.3423 23.7611 24.1416 23.7611 24.1416C24.049 23.8037 24.5284 23.8286 24.5284 23.8286C24.6247 25.4983 23.7611 25.9678 23.7611 25.9678C23.7611 25.9678 24.4808 25.0298 25.3443 24.977C25.3443 24.977 25.4168 25.7326 25.0803 26.2031C25.0803 26.2031 26.3766 26.2808 26.5921 26.8022C26.5921 26.8022 26.5921 27.3504 25.1766 27.7422C25.1766 27.7422 25.4883 28.4469 25.3443 28.9423C25.3443 28.9423 24.1205 28.5506 23.9765 27.9246H22.6573" fill="#FFCC00"/>
<path d="M22.6582 27.9246H22.0825C21.9386 28.5506 20.7147 28.9423 20.7147 28.9423C20.5708 28.4469 20.8825 27.7422 20.8825 27.7422C19.467 27.3504 19.467 26.8022 19.467 26.8022C19.6824 26.2808 20.9787 26.2031 20.9787 26.2031C20.6423 25.7336 20.7147 24.977 20.7147 24.977C21.5783 25.0298 22.2979 25.9678 22.2979 25.9678C22.2979 25.9678 21.4343 25.4993 21.5306 23.8286C21.5306 23.8286 22.0101 23.8037 22.2979 24.1416C22.2979 24.1416 22.2979 22.3423 22.9938 22.134H23.0653C23.7611 22.3423 23.7611 24.1416 23.7611 24.1416C24.049 23.8037 24.5284 23.8286 24.5284 23.8286C24.6247 25.4983 23.7611 25.9678 23.7611 25.9678C23.7611 25.9678 24.4808 25.0298 25.3443 24.977C25.3443 24.977 25.4168 25.7326 25.0803 26.2031C25.0803 26.2031 26.3766 26.2808 26.5921 26.8022C26.5921 26.8022 26.5921 27.3504 25.1766 27.7422C25.1766 27.7422 25.4883 28.4469 25.3443 28.9423C25.3443 28.9423 24.1205 28.5506 23.9765 27.9246H22.6573H22.6582Z" fill="#BCAC0B" stroke="black" stroke-width="0.653319"/>
<path d="M22.9856 28.2805C23.6264 28.2805 24.1453 27.7162 24.1453 27.0195C24.1453 26.3237 23.6264 25.7595 22.9856 25.7595C22.3457 25.7595 21.8268 26.3237 21.8268 27.0195C21.8268 27.7162 22.3457 28.2805 22.9856 28.2805Z" fill="white"/>
<path d="M22.9856 28.2805C23.6264 28.2805 24.1453 27.7162 24.1453 27.0195C24.1453 26.3237 23.6264 25.7595 22.9856 25.7595C22.3457 25.7595 21.8268 26.3237 21.8268 27.0195C21.8268 27.7162 22.3457 28.2805 22.9856 28.2805Z" stroke="black" stroke-width="0.40352"/>
<path d="M22.9855 27.7083C23.3357 27.7083 23.6199 27.4003 23.6199 27.0195C23.6199 26.6397 23.3357 26.3316 22.9855 26.3316C22.6362 26.3316 22.353 26.6397 22.353 27.0195C22.353 27.4003 22.6362 27.7083 22.9855 27.7083Z" fill="white"/>
<path d="M22.9855 27.7083C23.3357 27.7083 23.6199 27.4003 23.6199 27.0195C23.6199 26.6397 23.3357 26.3316 22.9855 26.3316C22.6362 26.3316 22.353 26.6397 22.353 27.0195C22.353 27.4003 22.6362 27.7083 22.9855 27.7083Z" stroke="black" stroke-width="0.2522"/>
<path d="M31.7773 28.741L32.3402 28.8736C32.3576 29.5185 33.4797 30.1814 33.4797 30.1814C33.7153 29.7298 33.5476 28.9703 33.5476 28.9703C35.0071 28.9124 35.1125 28.3771 35.1125 28.3771C35.0034 27.8169 33.752 27.4431 33.752 27.4431C34.171 27.0613 34.248 26.3047 34.248 26.3047C33.3936 26.1582 32.5071 26.9108 32.5071 26.9108C32.5071 26.9108 33.4431 26.6506 33.6732 24.9959C33.6732 24.9959 33.2084 24.8613 32.8627 25.1255C32.8627 25.1255 33.2111 23.3661 32.5721 23.0033L32.5015 22.9863C31.781 23.0312 31.4317 24.7906 31.4317 24.7906C31.2162 24.3928 30.7423 24.3081 30.7423 24.3081C30.3242 25.918 31.0778 26.5759 31.0778 26.5759C31.0778 26.5759 30.5562 25.4923 29.7219 25.2431C29.7219 25.2431 29.5047 25.9658 29.7421 26.5021C29.7421 26.5021 28.4605 26.2818 28.1478 26.7423C28.1478 26.7423 28.0424 27.2777 29.3497 27.9854C29.3497 27.9854 28.9078 28.6024 28.9528 29.1198C28.9528 29.1198 30.2252 29.0181 30.4874 28.439L31.0494 28.5705L31.7773 28.741Z" fill="#FFCC00"/>
<path d="M31.7773 28.741L32.3402 28.8736C32.3576 29.5185 33.4797 30.1814 33.4797 30.1814C33.7153 29.7298 33.5476 28.9703 33.5476 28.9703C35.0071 28.9124 35.1125 28.3771 35.1125 28.3771C35.0034 27.8169 33.752 27.4431 33.752 27.4431C34.171 27.0613 34.248 26.3047 34.248 26.3047C33.3936 26.1582 32.5071 26.9108 32.5071 26.9108C32.5071 26.9108 33.4431 26.6506 33.6732 24.9959C33.6732 24.9959 33.2084 24.8613 32.8627 25.1255C32.8627 25.1255 33.2111 23.3661 32.5721 23.0033L32.5015 22.9863C31.781 23.0312 31.4317 24.7906 31.4317 24.7906C31.2162 24.3928 30.7423 24.3081 30.7423 24.3081C30.3242 25.918 31.0778 26.5759 31.0778 26.5759C31.0778 26.5759 30.5562 25.4923 29.7219 25.2431C29.7219 25.2431 29.5047 25.9658 29.7421 26.5021C29.7421 26.5021 28.4605 26.2818 28.1478 26.7423C28.1478 26.7423 28.0424 27.2777 29.3497 27.9854C29.3497 27.9854 28.9078 28.6024 28.9528 29.1198C28.9528 29.1198 30.2252 29.0181 30.4874 28.439L31.0494 28.5705L31.7773 28.741Z" fill="#BCAC0B" stroke="black" stroke-width="0.653319"/>
<path d="M31.3867 29.0141C30.7615 28.8676 30.3636 28.1967 30.4984 27.5159C30.6332 26.836 31.2501 26.4024 31.8763 26.5499C32.5024 26.6965 32.9003 27.3673 32.7655 28.0482C32.6299 28.728 32.0129 29.1616 31.3867 29.0141Z" fill="white"/>
<path d="M31.3867 29.0141C30.7615 28.8676 30.3636 28.1967 30.4984 27.5159C30.6332 26.836 31.2501 26.4024 31.8763 26.5499C32.5024 26.6965 32.9003 27.3673 32.7655 28.0482C32.6299 28.728 32.0129 29.1616 31.3867 29.0141Z" stroke="black" stroke-width="0.40352"/>
<path d="M31.4986 28.4549C31.1557 28.3751 30.9385 28.0083 31.0127 27.6365C31.0861 27.2657 31.4234 27.0284 31.7654 27.1092C32.1073 27.1889 32.3246 27.5568 32.2513 27.9276C32.177 28.2994 31.8396 28.5356 31.4986 28.4549Z" fill="white"/>
<path d="M31.4986 28.4549C31.1557 28.3751 30.9385 28.0083 31.0127 27.6365C31.0861 27.2657 31.4234 27.0284 31.7654 27.1092C32.1073 27.1889 32.3246 27.5568 32.2513 27.9276C32.177 28.2994 31.8396 28.5356 31.4986 28.4549Z" stroke="black" stroke-width="0.2522"/>
<path d="M13.8995 28.6184L13.3284 28.7001C13.2615 29.3421 12.0953 29.9053 12.0953 29.9053C11.8927 29.4348 12.1164 28.6921 12.1164 28.6921C10.6661 28.5067 10.5992 27.9635 10.5992 27.9635C10.7504 27.4162 12.0247 27.152 12.0247 27.152C11.6351 26.7354 11.615 25.9748 11.615 25.9748C12.4776 25.904 13.3055 26.7304 13.3055 26.7304C13.3055 26.7304 12.3924 26.3885 12.2851 24.7198C12.2851 24.7198 12.7582 24.6251 13.0845 24.9201C13.0845 24.9201 12.8663 23.1358 13.5292 22.8288L13.6007 22.8198C14.3157 22.9255 14.5339 24.7108 14.5339 24.7108C14.7787 24.334 15.2573 24.2901 15.2573 24.2901C15.5552 25.9319 14.7558 26.52 14.7558 26.52C14.7558 26.52 15.3554 25.4873 16.2052 25.3119C16.2052 25.3119 16.3684 26.0505 16.0924 26.5639C16.0924 26.5639 17.386 26.4553 17.6638 26.9417C17.6638 26.9417 17.7298 27.485 16.3739 28.0761C16.3739 28.0761 16.769 28.729 16.6865 29.2414C16.6865 29.2414 15.4259 29.0291 15.2068 28.429L14.6357 28.5117L13.8995 28.6184Z" fill="#FFCC00"/>
<path d="M13.8995 28.6184L13.3284 28.7001C13.2615 29.3421 12.0953 29.9053 12.0953 29.9053C11.8927 29.4348 12.1164 28.6921 12.1164 28.6921C10.6661 28.5067 10.5992 27.9635 10.5992 27.9635C10.7504 27.4162 12.0247 27.152 12.0247 27.152C11.6351 26.7354 11.615 25.9748 11.615 25.9748C12.4776 25.904 13.3055 26.7304 13.3055 26.7304C13.3055 26.7304 12.3924 26.3885 12.2851 24.7198C12.2851 24.7198 12.7582 24.6251 13.0845 24.9201C13.0845 24.9201 12.8663 23.1358 13.5292 22.8288L13.6007 22.8198C14.3157 22.9255 14.5339 24.7108 14.5339 24.7108C14.7787 24.334 15.2573 24.2901 15.2573 24.2901C15.5552 25.9319 14.7558 26.52 14.7558 26.52C14.7558 26.52 15.3554 25.4873 16.2052 25.3119C16.2052 25.3119 16.3684 26.0505 16.0924 26.5639C16.0924 26.5639 17.386 26.4553 17.6638 26.9417C17.6638 26.9417 17.7298 27.485 16.3739 28.0761C16.3739 28.0761 16.769 28.729 16.6865 29.2414C16.6865 29.2414 15.4259 29.0291 15.2068 28.429L14.6357 28.5117L13.8995 28.6184Z" fill="#BCAC0B" stroke="black" stroke-width="0.653319"/>
<path d="M14.2671 28.9244C14.9024 28.8327 15.3489 28.1987 15.2637 27.5079C15.1793 26.8181 14.5962 26.3326 13.9618 26.4254C13.3265 26.5171 12.881 27.151 12.9653 27.8408C13.0497 28.5306 13.6327 29.0161 14.2671 28.9244Z" fill="white"/>
<path d="M14.2671 28.9244C14.9024 28.8327 15.3489 28.1987 15.2637 27.5079C15.1793 26.8181 14.5962 26.3326 13.9618 26.4254C13.3265 26.5171 12.881 27.151 12.9653 27.8408C13.0497 28.5306 13.6327 29.0161 14.2671 28.9244Z" stroke="black" stroke-width="0.40352"/>
<path d="M14.1984 28.3572C14.5449 28.3074 14.7888 27.9615 14.742 27.5837C14.6962 27.2069 14.378 26.9427 14.0315 26.9915C13.6841 27.0424 13.4402 27.3883 13.4869 27.7651C13.5328 28.1429 13.8518 28.407 14.1984 28.3572Z" fill="white"/>
<path d="M14.1984 28.3572C14.5449 28.3074 14.7888 27.9615 14.742 27.5837C14.6962 27.2069 14.378 26.9427 14.0315 26.9915C13.6841 27.0424 13.4402 27.3883 13.4869 27.7651C13.5328 28.1429 13.8518 28.407 14.1984 28.3572Z" stroke="black" stroke-width="0.2522"/>
<path d="M39.8127 31.2979C39.8127 31.2979 39.5221 30.4685 38.8803 30.7665C38.2386 31.0646 38.3046 31.1733 37.7307 31.1354C37.7307 31.1354 37.507 30.3897 37.7894 30.0678C37.7894 30.0678 36.8726 29.695 36.6801 28.8197C36.6801 28.8197 37.1715 28.1997 38.3358 28.431C38.3358 28.431 38.2991 27.802 38.4586 27.5249C38.4586 27.5249 39.7091 27.9455 39.7155 28.7041C39.7155 28.7041 39.3406 27.2158 40.0006 26.1353C40.0006 26.1353 40.5864 26.4084 40.5489 27.0863C40.5489 27.0863 40.8184 25.6917 42.552 26.0665C42.552 26.0665 41.6123 26.9726 41.5655 27.3873C41.5188 27.802 40.735 28.5087 40.7212 28.744C40.7093 28.9782 40.614 29.3899 40.3838 29.6361C40.1537 29.8824 40.1308 30.3 40.1491 30.4306C40.1647 30.5632 40.1097 31.1344 39.8127 31.2979Z" fill="#FFCC00"/>
<path d="M39.8127 31.2979C39.8127 31.2979 39.5221 30.4685 38.8803 30.7665C38.2386 31.0646 38.3046 31.1733 37.7307 31.1354C37.7307 31.1354 37.507 30.3897 37.7894 30.0678C37.7894 30.0678 36.8726 29.695 36.6801 28.8197C36.6801 28.8197 37.1715 28.1997 38.3358 28.431C38.3358 28.431 38.2991 27.802 38.4586 27.5249C38.4586 27.5249 39.7091 27.9455 39.7155 28.7041C39.7155 28.7041 39.3406 27.2158 40.0006 26.1353C40.0006 26.1353 40.5864 26.4084 40.5489 27.0863C40.5489 27.0863 40.8184 25.6917 42.552 26.0665C42.552 26.0665 41.6123 26.9726 41.5655 27.3873C41.5188 27.802 40.735 28.5087 40.7212 28.744C40.7093 28.9782 40.614 29.3899 40.3838 29.6361C40.1537 29.8824 40.1308 30.3 40.1491 30.4306C40.1647 30.5632 40.1097 31.1344 39.8127 31.2979Z" fill="#BCAC0B" stroke="black" stroke-width="0.653319"/>
<path d="M38.874 29.6431C38.9968 28.9603 39.6056 28.5137 40.2335 28.6473C40.4123 28.6842 40.5718 28.7659 40.7075 28.8775C40.6727 29.1138 40.5755 29.4318 40.3848 29.6361C40.1547 29.8823 40.1318 30.3 40.1492 30.4306C40.162 30.5343 40.1281 30.9071 39.9704 31.1433C39.9109 31.1403 39.8503 31.1344 39.7908 31.1214C39.1637 30.9888 38.753 30.3269 38.874 29.6431Z" fill="white"/>
<path d="M38.874 29.6431C38.9968 28.9603 39.6056 28.5137 40.2335 28.6473C40.4123 28.6842 40.5718 28.7659 40.7075 28.8775C40.6727 29.1138 40.5755 29.4318 40.3848 29.6361C40.1547 29.8823 40.1318 30.3 40.1492 30.4306C40.162 30.5343 40.1281 30.9071 39.9704 31.1433C39.9109 31.1403 39.8503 31.1344 39.7908 31.1214C39.1637 30.9888 38.753 30.3269 38.874 29.6431Z" stroke="black" stroke-width="0.40352"/>
<path d="M39.391 29.7528C39.457 29.3799 39.7898 29.1357 40.1336 29.2085C40.2894 29.2414 40.4187 29.3361 40.5103 29.4637C40.4737 29.5255 40.4324 29.5853 40.3848 29.6361C40.1546 29.8823 40.1317 30.3 40.1491 30.4306C40.1519 30.4575 40.1519 30.5034 40.1473 30.5572C40.0657 30.5761 39.9786 30.5791 39.8915 30.5602C39.5478 30.4874 39.3241 30.1266 39.391 29.7528Z" fill="white"/>
<path d="M39.391 29.7528C39.457 29.3799 39.7898 29.1357 40.1336 29.2085C40.2894 29.2414 40.4187 29.3361 40.5103 29.4637C40.4737 29.5255 40.4324 29.5853 40.3848 29.6361C40.1546 29.8823 40.1317 30.3 40.1491 30.4306C40.1519 30.4575 40.1519 30.5034 40.1473 30.5572C40.0657 30.5761 39.9786 30.5791 39.8915 30.5602C39.5478 30.4874 39.3241 30.1266 39.391 29.7528Z" stroke="black" stroke-width="0.2522"/>
<path d="M6.22254 30.9509C6.22254 30.9509 6.55807 30.1425 7.18147 30.4814C7.80579 30.8204 7.73336 30.925 8.31001 30.925C8.31001 30.925 8.57312 30.1944 8.31001 29.8554C8.31001 29.8554 9.24511 29.5424 9.4853 28.6812C9.4853 28.6812 9.02967 28.0292 7.85346 28.1857C7.85346 28.1857 7.92588 27.5587 7.78195 27.2726C7.78195 27.2726 6.51041 27.6116 6.46182 28.3682C6.46182 28.3682 6.91836 26.9068 6.31788 25.7854C6.31788 25.7854 5.71832 26.0196 5.71832 26.6985C5.71832 26.6985 5.52672 25.289 3.77478 25.5501C3.77478 25.5501 4.66221 26.5161 4.68696 26.9327C4.7108 27.3504 5.45429 28.107 5.45429 28.3422C5.45429 28.5765 5.52672 28.9942 5.74215 29.2553C5.95851 29.5165 5.95851 29.9332 5.93376 30.0638C5.90992 30.1934 5.93376 30.7675 6.22254 30.9509Z" fill="#FFCC00"/>
<path d="M6.22254 30.9509C6.22254 30.9509 6.55807 30.1425 7.18147 30.4814C7.80579 30.8204 7.73336 30.925 8.31001 30.925C8.31001 30.925 8.57312 30.1944 8.31001 29.8554C8.31001 29.8554 9.24511 29.5424 9.4853 28.6812C9.4853 28.6812 9.02967 28.0292 7.85346 28.1857C7.85346 28.1857 7.92588 27.5587 7.78195 27.2726C7.78195 27.2726 6.51041 27.6116 6.46182 28.3682C6.46182 28.3682 6.91836 26.9068 6.31788 25.7854C6.31788 25.7854 5.71832 26.0196 5.71832 26.6985C5.71832 26.6985 5.52672 25.289 3.77478 25.5501C3.77478 25.5501 4.66221 26.5161 4.68696 26.9327C4.7108 27.3504 5.45429 28.107 5.45429 28.3422C5.45429 28.5765 5.52672 28.9942 5.74215 29.2553C5.95851 29.5165 5.95851 29.9332 5.93376 30.0638C5.90992 30.1934 5.93376 30.7675 6.22254 30.9509Z" fill="#BCAC0B" stroke="black" stroke-width="0.653319"/>
<path d="M7.2493 29.361C7.16496 28.6702 6.58281 28.1858 5.9475 28.2775C5.76781 28.3034 5.60371 28.3742 5.46161 28.4768C5.48361 28.7151 5.56246 29.038 5.74214 29.2554C5.9585 29.5165 5.9585 29.9332 5.93374 30.0638C5.91541 30.1655 5.92824 30.5403 6.07401 30.7855C6.13268 30.7865 6.19319 30.7855 6.25369 30.7765C6.88809 30.6848 7.33455 30.0508 7.2493 29.361Z" fill="white"/>
<path d="M7.2493 29.361C7.16496 28.6702 6.58281 28.1858 5.9475 28.2775C5.76781 28.3034 5.60371 28.3742 5.46161 28.4768C5.48361 28.7151 5.56246 29.038 5.74214 29.2554C5.9585 29.5165 5.9585 29.9332 5.93374 30.0638C5.91541 30.1655 5.92824 30.5403 6.07401 30.7855C6.13268 30.7865 6.19319 30.7855 6.25369 30.7765C6.88809 30.6848 7.33455 30.0508 7.2493 29.361Z" stroke="black" stroke-width="0.40352"/>
<path d="M6.7286 29.4358C6.68276 29.059 6.36372 28.7938 6.01718 28.8437C5.85859 28.8676 5.72474 28.9533 5.62665 29.0739C5.66057 29.1387 5.69724 29.2005 5.74216 29.2553C5.95852 29.5165 5.95851 29.9332 5.93376 30.0638C5.92917 30.0897 5.92735 30.1345 5.92826 30.1894C6.00894 30.2143 6.09603 30.2223 6.18404 30.2103C6.53058 30.1595 6.77444 29.8136 6.7286 29.4358Z" fill="white"/>
<path d="M6.7286 29.4358C6.68276 29.059 6.36372 28.7938 6.01718 28.8437C5.85859 28.8676 5.72474 28.9533 5.62665 29.0739C5.66057 29.1387 5.69724 29.2005 5.74216 29.2553C5.95852 29.5165 5.95851 29.9332 5.93376 30.0638C5.92917 30.0897 5.92735 30.1345 5.92826 30.1894C6.00894 30.2143 6.09603 30.2223 6.18404 30.2103C6.53058 30.1595 6.77444 29.8136 6.7286 29.4358Z" stroke="black" stroke-width="0.2522"/>
<path d="M8.16516 38.5687C8.16516 38.5687 21.0457 33.0822 37.3182 38.6863" stroke="black" stroke-width="1.5084"/>
<path d="M39.1343 34.1996C21.1538 28.0073 6.82208 33.8517 6.82208 33.8517" stroke="black" stroke-width="0.501998"/>
<path d="M22.9461 32.83L21.5059 33.6125L22.8022 34.4997L24.3377 33.6643L22.9461 32.83Z" fill="#FF0000"/>
<path d="M22.9461 32.83L21.5059 33.6125L22.8022 34.4997L24.3377 33.6643L22.9461 32.83Z" stroke="black" stroke-width="0.501998"/>
</svg>
