<svg width="52" height="60" viewBox="0 0 52 60" fill="none" xmlns="http://www.w3.org/2000/svg">
<path d="M23.0501 36.0266C22.55 36.2244 22.3053 36.7903 22.5032 37.2902C22.7011 37.7902 23.267 38.0348 23.7668 37.8371C24.9085 37.3851 26.166 37.3851 27.3077 37.8371C27.4253 37.8836 27.5466 37.9056 27.6659 37.9056C28.0535 37.9056 28.4201 37.6725 28.5715 37.2902C28.7693 36.7903 28.5246 36.2245 28.0245 36.0266C26.4207 35.3915 24.6539 35.3915 23.0501 36.0266Z" fill="black"/>
<path d="M45.7795 21.4008L50.9621 11.5539C51.1071 11.2783 51.1115 10.9501 50.9743 10.6708C50.8368 10.3914 50.5741 10.1946 50.2675 10.1413L47.9193 9.73287C44.2124 9.08821 40.9553 7.05532 38.7475 4.00858C37.6586 2.50624 36.3487 1.21641 34.8539 0.174778C34.5084 -0.0660275 34.0468 -0.0573299 33.7105 0.196717C31.3407 1.98672 28.5145 2.93281 25.5371 2.93281C22.5597 2.93281 19.7335 1.98672 17.3637 0.196717C17.0274 -0.0572001 16.566 -0.0660275 16.2203 0.174778C14.7251 1.21654 13.4153 2.50637 12.3268 4.00845C10.1191 7.05506 6.86176 9.08795 3.15492 9.73274L0.80671 10.1411C0.500089 10.1945 0.237215 10.3913 0.0998714 10.6706C-0.037472 10.95 -0.0329283 11.2783 0.112074 11.5538L5.29478 21.4007C6.26657 23.247 8.03074 24.4003 9.95952 24.6384V30.6433C9.95952 31.173 9.52867 31.604 8.9989 31.604C8.46925 31.604 8.0384 31.173 8.0384 30.6433V28.2288C8.0384 26.7972 6.87371 25.6325 5.44212 25.6325C4.01052 25.6325 2.84583 26.7972 2.84583 28.2288V30.6433C2.84583 34.0362 5.6062 36.7965 8.9989 36.7965C10.6244 36.7965 12.1038 36.1617 13.2049 35.1285V42.385C13.2049 42.6497 13.0988 42.8965 12.9059 43.0801C12.7134 43.2635 12.4597 43.3579 12.1943 43.3442C11.6922 43.3198 11.2836 42.8644 11.2836 42.3292V41.2608C11.2836 40.5588 11.0076 39.9012 10.5064 39.4092C10.0048 38.9169 9.3429 38.6529 8.63918 38.666C7.2342 38.6904 6.09106 39.879 6.09106 41.3154V42.385C6.09106 44.0541 6.75025 45.617 7.94714 46.786C9.10768 47.9194 10.6277 48.5384 12.2424 48.5384C12.2922 48.5384 12.3421 48.5377 12.392 48.5365C13.9553 48.4992 15.3806 47.8542 16.4502 46.8299V49.5412C16.4502 50.0764 16.0416 50.5319 15.5389 50.5567C15.1626 50.574 14.8073 50.3703 14.6343 50.0343C14.1859 49.1642 13.3011 48.6236 12.3254 48.6236C11.4131 48.6236 10.5828 49.0888 10.1044 49.868C9.63239 50.6367 9.59293 51.5733 9.99872 52.3731C11.0454 54.4367 13.1911 55.7503 15.4943 55.7503C15.5419 55.7503 15.5897 55.7498 15.6376 55.7486C17.2008 55.7116 18.626 55.0668 19.6957 54.0426V57.4032C19.6957 58.8348 20.8604 59.9995 22.292 59.9995C23.7236 59.9995 24.8883 58.8348 24.8883 57.4032V54.0344C25.0961 54.0883 25.3129 54.1199 25.5374 54.1199C25.7618 54.1199 25.9786 54.0882 26.1864 54.0344V57.4032C26.1864 58.8348 27.3511 59.9995 28.7827 59.9995C30.2143 59.9995 31.379 58.8348 31.379 57.4032V54.0426C32.4485 55.0668 33.8739 55.7116 35.4371 55.7486C35.485 55.7498 35.5325 55.7503 35.5804 55.7503C37.8832 55.7502 40.0292 54.4366 41.076 52.3731C41.4818 51.5732 41.4422 50.6367 40.9703 49.8679C40.4918 49.0888 39.6615 48.6235 38.7493 48.6235C37.7735 48.6235 36.8888 49.1641 36.4405 50.0342C36.2674 50.37 35.913 50.5738 35.5356 50.5566C35.0333 50.5318 34.6245 50.0761 34.6245 49.541V46.8705C35.7731 47.949 37.2556 48.5381 38.8288 48.5381C38.8785 48.5381 38.9285 48.5375 38.9783 48.5363C42.2897 48.4572 44.9837 45.6539 44.9837 42.2873V41.2605C44.9837 40.558 44.7077 39.9001 44.2065 39.4081C43.7054 38.9163 43.0422 38.6518 42.3408 38.6656C40.9349 38.69 39.7911 39.8785 39.7911 41.315V42.3846C39.7911 42.6493 39.685 42.8961 39.4921 43.0797C39.2996 43.2631 39.0458 43.3572 38.7806 43.3438C38.2785 43.3194 37.8698 42.864 37.8698 42.3288V35.1282C38.971 36.1614 40.4503 36.7961 42.0758 36.7961C45.4686 36.7961 48.2289 34.0358 48.2289 30.643V28.2284C48.2289 26.7968 47.0642 25.6321 45.6326 25.6321C44.201 25.6321 43.0363 26.7968 43.0363 28.2284V30.643C43.0363 31.1726 42.6055 31.6036 42.0758 31.6036C41.546 31.6036 41.1152 31.1726 41.1152 30.643V24.6394C43.0434 24.4017 44.8078 23.247 45.7795 21.4008ZM6.39599 19.3125L2.45808 11.8304L3.48854 11.6513C7.6979 10.9192 11.3966 8.61075 13.9035 5.15108C14.7272 4.01442 15.6935 3.01628 16.7822 2.17677C19.3657 3.9477 22.3773 4.88002 25.537 4.88002C28.6966 4.88002 31.7082 3.9477 34.2918 2.17677C35.3803 3.01615 36.3466 4.01429 37.1704 5.15108C39.6774 8.61062 43.3762 10.9191 47.5853 11.6511L48.6157 11.8304L44.6782 19.3125C38.5464 16.9675 32.1115 15.7784 25.5371 15.7784C18.9625 15.7784 12.5278 16.9677 6.39599 19.3125ZM8.99877 34.8494C6.67963 34.8494 4.79292 32.9626 4.79292 30.6435V28.2289C4.79292 27.871 5.08409 27.5799 5.44199 27.5799C5.79988 27.5799 6.09106 27.871 6.09106 28.2289V30.6435C6.09106 32.2469 7.39543 33.5513 8.99877 33.5513C10.6021 33.5513 11.9066 32.2469 11.9066 30.6435V24.567C12.3015 24.4879 12.6948 24.3692 13.0812 24.2085C13.1222 24.1913 13.1636 24.1757 13.2047 24.1587V30.6435C13.2047 32.9626 11.3179 34.8494 8.99877 34.8494ZM29.4315 41.3337V49.5004V57.4038C29.4315 57.7617 29.1403 58.0528 28.7825 58.0528C28.4246 58.0528 28.1334 57.7617 28.1334 57.4038V41.4635C28.1334 40.9258 27.6976 40.4899 27.1598 40.4899C26.622 40.4899 26.1862 40.9258 26.1862 41.4635V51.5241C26.1862 51.882 25.895 52.1732 25.5371 52.1732C25.1792 52.1732 24.888 51.882 24.888 51.5241V41.4635C24.888 40.9258 24.4522 40.4899 23.9144 40.4899C23.3766 40.4899 22.9408 40.9258 22.9408 41.4635V57.4038C22.9408 57.7617 22.6496 58.0528 22.2917 58.0528C21.9338 58.0528 21.6427 57.7617 21.6427 57.4038V49.5004V41.3337V38.283C21.6427 36.1357 23.3897 34.3886 25.5371 34.3886C27.6845 34.3886 29.4315 36.1357 29.4315 38.283V41.3337ZM38.6849 45.2892C39.4859 45.3286 40.2518 45.0451 40.8344 44.4905C41.4086 43.9438 41.7379 43.1764 41.7379 42.3852V41.3155C41.7379 40.9407 42.0292 40.619 42.3753 40.6131C42.5502 40.6111 42.717 40.6756 42.842 40.7983C42.9671 40.9211 43.036 41.0855 43.036 41.261V42.2878C43.036 44.606 41.1948 46.5361 38.9318 46.5901C37.7897 46.6162 36.7115 46.1921 35.8935 45.3931C35.0749 44.5936 34.6242 43.5253 34.6242 42.3852V37.8936C34.6242 34.9041 33.1532 32.1056 30.6892 30.4075C29.2652 29.4263 28.4152 27.8458 28.4152 26.1798V26.1453C28.4152 25.5352 28.8949 25.0363 29.4966 25.0024V26.1886C29.4966 26.7263 29.9323 27.1622 30.4702 27.1622C31.008 27.1622 31.4438 26.7263 31.4438 26.1886V24.999H33.1084C33.6462 24.999 34.082 24.5631 34.082 24.0254C34.082 23.4877 33.6462 23.0518 33.1084 23.0518H29.5613C27.8556 23.0518 26.468 24.4395 26.468 26.1451V26.1797C26.468 28.4863 27.6329 30.6662 29.5842 32.0108C31.5209 33.3453 32.677 35.5445 32.677 37.8935V49.5414C32.677 51.125 33.8904 52.4254 35.4392 52.5018C36.5793 52.5587 37.6489 51.9397 38.171 50.9267C38.2839 50.7074 38.5054 50.5713 38.7489 50.5713C39.0807 50.5713 39.2522 50.7923 39.3106 50.8873C39.3658 50.9773 39.4793 51.2164 39.3392 51.4927C38.6081 52.934 37.0891 53.8409 35.4831 53.8025C33.2199 53.749 31.3789 51.819 31.3789 49.5004V38.283C31.3789 35.062 28.7583 32.4414 25.5372 32.4414C22.3161 32.4414 19.6956 35.062 19.6956 38.283V49.5004C19.6956 51.819 17.8544 53.749 15.5914 53.8025C13.9819 53.8398 12.4664 52.934 11.7352 51.4927C11.5952 51.2166 11.7085 50.9773 11.7638 50.8873C11.8222 50.7923 11.9937 50.5713 12.3255 50.5713C12.569 50.5713 12.7905 50.7074 12.9034 50.9266C13.4254 51.9396 14.4964 52.5603 15.6351 52.5018C17.1841 52.4254 18.3974 51.125 18.3974 49.5414V37.8935C18.3974 35.9878 19.1401 34.1943 20.4871 32.845C20.8029 32.5299 21.1495 32.243 21.517 31.9924C23.4515 30.6729 24.6066 28.4871 24.6066 26.1451C24.6066 24.4395 23.219 23.0518 21.5132 23.0518H17.9662C17.4284 23.0518 16.9926 23.4877 16.9926 24.0254C16.9926 24.5631 17.4284 24.999 17.9662 24.999H19.6306V26.1886C19.6306 26.7263 20.0663 27.1622 20.6042 27.1622C21.142 27.1622 21.5778 26.7263 21.5778 26.1886V25.0024C22.1795 25.0363 22.6591 25.5352 22.6591 26.1453C22.6591 27.8429 21.8219 29.4274 20.4197 30.3837C19.9527 30.7021 19.5127 31.0664 19.1101 31.4679C17.3948 33.1864 16.4501 35.4684 16.4501 37.8936V42.2878C16.4501 44.606 14.6087 46.5361 12.3458 46.5901C11.2025 46.6162 10.1256 46.1921 9.30759 45.3931C8.48899 44.5936 8.03827 43.5253 8.03827 42.3852V41.3155C8.03827 40.9407 8.32892 40.619 8.67423 40.6131C8.85246 40.6098 9.01694 40.6758 9.14221 40.7991C9.26735 40.9219 9.33628 41.086 9.33628 41.2611V42.3295C9.33628 43.9139 10.55 45.2139 12.0989 45.2894C12.905 45.3286 13.666 45.0451 14.2485 44.4905C14.8226 43.9438 15.152 43.1765 15.152 42.3853V31.2213C15.152 29.8182 16.2933 28.6769 17.6963 28.6769C18.2341 28.6769 18.6699 28.241 18.6699 27.7033C18.6699 27.1656 18.2341 26.7297 17.6963 26.7297C16.7523 26.7297 15.8758 27.0231 15.152 27.5226V23.4297C18.4968 22.2963 21.9802 21.7212 25.5371 21.7212C29.0939 21.7212 32.5773 22.2963 35.9222 23.4297V27.5226C35.1984 27.0231 34.3219 26.7297 33.3779 26.7297C32.8401 26.7297 32.4043 27.1656 32.4043 27.7033C32.4043 28.241 32.8401 28.6769 33.3779 28.6769C34.7809 28.6769 35.9222 29.8182 35.9222 31.2213V42.3295C35.9222 43.9136 37.136 45.2137 38.6849 45.2892ZM42.0756 33.5513C43.679 33.5513 44.9833 32.2469 44.9833 30.6435V28.2289C44.9833 27.871 45.2744 27.5799 45.6323 27.5799C45.9902 27.5799 46.2814 27.871 46.2814 28.2289V30.6435C46.2814 32.9626 44.3947 34.8494 42.0756 34.8494C39.7564 34.8494 37.8696 32.9626 37.8696 30.6435V24.1587C37.9107 24.1756 37.9521 24.1913 37.9932 24.2085C38.3795 24.3692 38.7727 24.4872 39.1677 24.5662V30.6435C39.1676 32.2469 40.4721 33.5513 42.0756 33.5513ZM38.7409 22.4105C34.5349 20.661 30.0924 19.7739 25.5371 19.7739C20.9817 19.7739 16.5393 20.6609 12.3332 22.4105C10.5176 23.1659 8.48236 22.5702 7.35441 21.0319C13.1844 18.8383 19.2952 17.7257 25.5371 17.7257C31.7788 17.7257 37.8897 18.8382 43.7196 21.0319C42.5916 22.5703 40.5561 23.1657 38.7409 22.4105Z" fill="black"/>
<path d="M29.4968 10.308C29.4968 8.12475 27.7205 6.34863 25.5375 6.34863C23.3544 6.34863 21.5781 8.12475 21.5781 10.308C21.5781 12.4912 23.3544 14.2673 25.5375 14.2673C27.7205 14.2673 29.4968 12.4912 29.4968 10.308ZM23.5253 10.308C23.5253 9.19844 24.4279 8.29585 25.5375 8.29585C26.647 8.29585 27.5496 9.19844 27.5496 10.308C27.5496 11.4175 26.647 12.3201 25.5375 12.3201C24.4279 12.3201 23.5253 11.4175 23.5253 10.308Z" fill="black"/>
</svg>
