<svg width="20" height="20" viewBox="0 0 20 20" fill="none" xmlns="http://www.w3.org/2000/svg">
<path d="M14.6075 11.985C14.36 11.8608 13.1425 11.2625 12.9158 11.1792C12.6883 11.0967 12.5233 11.0558 12.3575 11.3042C12.1933 11.5517 11.7183 12.1092 11.5741 12.2742C11.43 12.44 11.285 12.46 11.0375 12.3367C10.79 12.2117 9.99162 11.9508 9.04579 11.1075C8.30996 10.4508 7.81246 9.64001 7.66829 9.39168C7.52413 9.14418 7.65329 9.01002 7.77663 8.88668C7.88829 8.77585 8.02496 8.59752 8.14829 8.45335C8.27163 8.30918 8.31329 8.20502 8.39663 8.03918C8.47913 7.87418 8.43829 7.73002 8.37579 7.60585C8.31329 7.48168 7.81829 6.26252 7.61246 5.76669C7.41079 5.28419 7.20663 5.35002 7.05496 5.34169C6.89671 5.33544 6.73834 5.33266 6.57996 5.33335C6.41496 5.33335 6.14663 5.39502 5.91996 5.64335C5.6933 5.89085 5.0533 6.49002 5.0533 7.70918C5.0533 8.92752 5.9408 10.105 6.06413 10.2708C6.18746 10.4367 7.81079 12.9375 10.295 14.01C10.8858 14.265 11.3466 14.4175 11.7066 14.5308C12.3 14.72 12.84 14.6933 13.2658 14.6292C13.7416 14.5583 14.7308 14.03 14.9374 13.4517C15.1441 12.8733 15.1441 12.3775 15.0816 12.2742C15.0199 12.1708 14.8558 12.1092 14.6075 11.985ZM10.0891 18.1542H10.0858C8.6106 18.1543 7.16253 17.7577 5.8933 17.0058L5.59246 16.8275L2.47497 17.6458L3.30663 14.6058L3.1108 14.2942C2.28617 12.9811 1.84992 11.4614 1.85247 9.91085C1.8533 5.36919 5.54913 1.67419 10.0925 1.67419C12.2925 1.67419 14.3608 2.53253 15.9158 4.08919C16.6832 4.8529 17.2914 5.76129 17.7053 6.76175C18.1191 7.76222 18.3303 8.83485 18.3266 9.91751C18.3241 14.4592 14.6291 18.1542 10.0891 18.1542ZM17.0999 2.90669C16.1816 1.98265 15.0891 1.24995 13.8857 0.751018C12.6823 0.252085 11.3919 -0.00317102 10.0891 2.97324e-05C4.62663 2.97324e-05 0.180804 4.44586 0.178304 9.91001C0.178304 11.6567 0.634137 13.3617 1.50164 14.8642L0.0949707 20L5.34913 18.6217C6.80236 19.4127 8.4304 19.8275 10.085 19.8283H10.0891C15.5508 19.8283 19.9974 15.3825 19.9999 9.91751C20.004 8.61524 19.7498 7.32508 19.252 6.12169C18.7543 4.91829 18.0228 3.82555 17.0999 2.90669Z" fill="#0F0F0F"/>
</svg>
